<svg width="24" height="24" viewBox="0 0 24 24" fill="none" xmlns="http://www.w3.org/2000/svg">
<path d="M21.75 12.7497V17.9997C21.75 18.5964 21.5129 19.1687 21.091 19.5907C20.669 20.0126 20.0967 20.2497 19.5 20.2497H18C17.4033 20.2497 16.831 20.0126 16.409 19.5907C15.9871 19.1687 15.75 18.5964 15.75 17.9997V14.2497C15.75 13.653 15.9871 13.0807 16.409 12.6587C16.831 12.2367 17.4033 11.9997 18 11.9997H20.2172C20.037 9.95791 19.1008 8.05702 17.592 6.66962C16.0832 5.28222 14.1106 4.50835 12.0609 4.49969H12C9.94173 4.49959 7.95776 5.26888 6.43759 6.65652C4.91742 8.04417 3.97087 9.94994 3.78375 11.9997H6C6.59674 11.9997 7.16903 12.2367 7.59099 12.6587C8.01295 13.0807 8.25 13.653 8.25 14.2497V17.9997C8.25 18.5964 8.01295 19.1687 7.59099 19.5907C7.16903 20.0126 6.59674 20.2497 6 20.2497H4.5C3.90326 20.2497 3.33097 20.0126 2.90901 19.5907C2.48705 19.1687 2.25 18.5964 2.25 17.9997V12.7497C2.2521 10.8183 2.82715 8.93104 3.90235 7.32665C4.97755 5.72227 6.50456 4.47294 8.29012 3.7368C10.0757 3.00066 12.0395 2.8108 13.933 3.19125C15.8265 3.57171 17.5646 4.50537 18.9272 5.87407C19.8268 6.7781 20.5393 7.85077 21.0237 9.03062C21.5081 10.2105 21.7549 11.4743 21.75 12.7497Z" fill="#667287"/>
</svg>
