<svg width="32" height="32" viewBox="0 0 32 32" fill="none" xmlns="http://www.w3.org/2000/svg">
<path d="M28.9738 23.4163C29.6791 21.9827 30.0305 20.4009 29.9988 18.8035C29.9671 17.2062 29.5531 15.6396 28.7915 14.2351C28.0299 12.8306 26.9428 11.6291 25.6214 10.7311C24.2999 9.83308 22.7825 9.26478 21.1963 9.07378C20.6702 7.84743 19.904 6.73878 18.9428 5.81314C17.9817 4.8875 16.8449 4.1636 15.5997 3.68408C14.3544 3.20456 13.0257 2.97912 11.692 3.02105C10.3582 3.06298 9.04632 3.37143 7.83362 3.92823C6.62091 4.48503 5.53191 5.27891 4.63078 6.26309C3.72964 7.24728 3.0346 8.40187 2.5866 9.65884C2.1386 10.9158 1.9467 12.2497 2.02222 13.582C2.09773 14.9143 2.43913 16.218 3.02629 17.4163L2.06879 20.7688C1.98335 21.0687 1.97961 21.386 2.05795 21.6879C2.13629 21.9897 2.29388 22.2652 2.51439 22.4857C2.73491 22.7062 3.01035 22.8638 3.3122 22.9421C3.61406 23.0205 3.93137 23.0167 4.23129 22.9313L7.58379 21.9738C8.59543 22.4705 9.68362 22.7929 10.8025 22.9275C11.3359 24.1771 12.1183 25.305 13.1021 26.2422C14.0858 27.1793 15.2502 27.9062 16.5242 28.3785C17.7981 28.8507 19.155 29.0584 20.5119 28.9888C21.8688 28.9192 23.1973 28.5738 24.4163 27.9738L27.7688 28.9313C28.0687 29.0167 28.386 29.0205 28.6879 28.9421C28.9897 28.8638 29.2652 28.7062 29.4857 28.4857C29.7062 28.2652 29.8638 27.9897 29.9421 27.6879C30.0205 27.386 30.0167 27.0687 29.9313 26.7688L28.9738 23.4163ZM26.9413 23.5838L27.885 26.885L24.5838 25.9413C24.3323 25.8706 24.0631 25.9011 23.8338 26.0263C21.9904 27.0292 19.827 27.2683 17.8091 26.6923C15.7912 26.1163 14.08 24.7711 13.0438 22.9463C14.4131 22.8037 15.7382 22.3796 16.9359 21.7007C18.1335 21.0218 19.178 20.1027 20.0037 19.0011C20.8294 17.8994 21.4185 16.6391 21.7341 15.299C22.0497 13.9589 22.0849 12.5681 21.8375 11.2138C23.0358 11.4962 24.1528 12.0513 25.1014 12.836C26.05 13.6206 26.8048 14.6137 27.3069 15.7377C27.809 16.8618 28.0449 18.0866 27.9962 19.3167C27.9475 20.5468 27.6156 21.7491 27.0263 22.83C26.9001 23.0604 26.8695 23.3311 26.9413 23.5838Z" fill="white"/>
</svg>
