<svg width="46" height="46" viewBox="0 0 46 46" fill="none" xmlns="http://www.w3.org/2000/svg">
<rect width="46" height="46" rx="23" fill="#171B1A"/>
<rect x="1.5" y="1.5" width="43" height="43" rx="21.5" stroke="white" stroke-opacity="0.12" stroke-width="3"/>
<path d="M31.25 16.125H14.75C14.5677 16.125 14.3928 16.1974 14.2639 16.3264C14.1349 16.4553 14.0625 16.6302 14.0625 16.8125V28.5C14.0625 28.8647 14.2074 29.2144 14.4652 29.4723C14.7231 29.7301 15.0728 29.875 15.4375 29.875H30.5625C30.9272 29.875 31.2769 29.7301 31.5348 29.4723C31.7926 29.2144 31.9375 28.8647 31.9375 28.5V16.8125C31.9375 16.6302 31.8651 16.4553 31.7361 16.3264C31.6072 16.1974 31.4323 16.125 31.25 16.125ZM20.4829 23L15.4375 27.6243V18.3757L20.4829 23ZM21.5004 23.9324L22.5316 24.882C22.6585 24.9985 22.8244 25.0631 22.9966 25.0631C23.1687 25.0631 23.3346 24.9985 23.4615 24.882L24.4927 23.9324L29.4771 28.5H16.5177L21.5004 23.9324ZM25.5171 23L30.5625 18.3748V27.6252L25.5171 23Z" fill="url(#paint0_linear_2736_2068)"/>
<defs>
<linearGradient id="paint0_linear_2736_2068" x1="23" y1="16.125" x2="26.5" y2="36" gradientUnits="userSpaceOnUse">
<stop offset="0.182834" stop-color="white"/>
<stop offset="1" stop-color="white" stop-opacity="0"/>
</linearGradient>
</defs>
</svg>
