<svg width="40" height="40" viewBox="0 0 40 40" fill="none" xmlns="http://www.w3.org/2000/svg">
<rect width="40" height="40" rx="20" fill="#171B1A"/>
<rect x="1.5" y="1.5" width="37" height="37" rx="18.5" stroke="white" stroke-opacity="0.12" stroke-width="3"/>
<path d="M22.0578 17.0577L23.4914 15.6248L22.0578 14.192C21.9405 14.0748 21.8747 13.9157 21.8747 13.7498C21.8747 13.584 21.9405 13.4249 22.0578 13.3077C22.1751 13.1904 22.3342 13.1245 22.5 13.1245C22.6659 13.1245 22.8249 13.1904 22.9422 13.3077L24.375 14.7412L25.8078 13.3077C25.9251 13.1904 26.0842 13.1245 26.25 13.1245C26.4159 13.1245 26.5749 13.1904 26.6922 13.3077C26.8095 13.4249 26.8754 13.584 26.8754 13.7498C26.8754 13.9157 26.8095 14.0748 26.6922 14.192L25.2594 15.6248L26.6922 17.0577C26.7503 17.1157 26.7963 17.1847 26.8278 17.2605C26.8592 17.3364 26.8754 17.4177 26.8754 17.4998C26.8754 17.582 26.8592 17.6633 26.8278 17.7392C26.7963 17.815 26.7503 17.884 26.6922 17.942C26.6341 18.0001 26.5652 18.0462 26.4893 18.0776C26.4134 18.109 26.3321 18.1252 26.25 18.1252C26.1679 18.1252 26.0866 18.109 26.0107 18.0776C25.9348 18.0462 25.8659 18.0001 25.8078 17.942L24.375 16.5084L22.9422 17.942C22.8249 18.0593 22.6659 18.1252 22.5 18.1252C22.3342 18.1252 22.1751 18.0593 22.0578 17.942C21.9405 17.8248 21.8747 17.6657 21.8747 17.4998C21.8747 17.334 21.9405 17.1749 22.0578 17.0577ZM27.3703 22.3795L23.6899 20.7303L23.6797 20.7256C23.4886 20.6439 23.2802 20.6111 23.0733 20.6302C22.8663 20.6493 22.6674 20.7197 22.4945 20.835C22.4742 20.8484 22.4546 20.8631 22.4359 20.8787L20.5367 22.4998C19.332 21.9147 18.0883 20.6803 17.5031 19.4912L19.1266 17.5608C19.1422 17.5412 19.157 17.5217 19.1711 17.5006C19.2839 17.3282 19.3524 17.1306 19.3704 16.9253C19.3884 16.72 19.3553 16.5135 19.2742 16.3241V16.3147L17.6203 12.628C17.5131 12.3805 17.3287 12.1744 17.0947 12.0403C16.8607 11.9063 16.5896 11.8515 16.3219 11.8842C15.2633 12.0235 14.2916 12.5434 13.5882 13.3468C12.8849 14.1502 12.4981 15.1821 12.5 16.2498C12.5 22.453 17.5469 27.4998 23.75 27.4998C24.8177 27.5018 25.8497 27.1149 26.6531 26.4116C27.4564 25.7083 27.9763 24.7366 28.1156 23.678C28.1484 23.4104 28.0937 23.1393 27.9598 22.9053C27.8259 22.6713 27.62 22.4869 27.3727 22.3795H27.3703Z" fill="url(#paint0_linear_1491_1892)"/>
<defs>
<linearGradient id="paint0_linear_1491_1892" x1="20.3124" y1="11.875" x2="23.75" y2="39.0624" gradientUnits="userSpaceOnUse">
<stop offset="0.169577" stop-color="white"/>
<stop offset="1" stop-color="white" stop-opacity="0"/>
</linearGradient>
</defs>
</svg>
