<svg width="12" height="13" viewBox="0 0 12 13" fill="none" xmlns="http://www.w3.org/2000/svg">
<path d="M11.5 6.00039V12.0004C11.5 12.2656 11.3946 12.52 11.2071 12.7075C11.0196 12.895 10.7652 13.0004 10.5 13.0004H1.5C1.23478 13.0004 0.98043 12.895 0.792893 12.7075C0.605357 12.52 0.5 12.2656 0.5 12.0004V6.00039C0.5 5.73518 0.605357 5.48082 0.792893 5.29329C0.98043 5.10575 1.23478 5.00039 1.5 5.00039H3C3.13261 5.00039 3.25979 5.05307 3.35355 5.14684C3.44732 5.24061 3.5 5.36778 3.5 5.50039C3.5 5.633 3.44732 5.76018 3.35355 5.85395C3.25979 5.94771 3.13261 6.00039 3 6.00039H1.5V12.0004H10.5V6.00039H9C8.86739 6.00039 8.74021 5.94771 8.64645 5.85395C8.55268 5.76018 8.5 5.633 8.5 5.50039C8.5 5.36778 8.55268 5.24061 8.64645 5.14684C8.74021 5.05307 8.86739 5.00039 9 5.00039H10.5C10.7652 5.00039 11.0196 5.10575 11.2071 5.29329C11.3946 5.48082 11.5 5.73518 11.5 6.00039ZM3.85375 3.35414L5.5 1.70727V7.50039C5.5 7.633 5.55268 7.76018 5.64645 7.85395C5.74021 7.94772 5.86739 8.00039 6 8.00039C6.13261 8.00039 6.25979 7.94772 6.35355 7.85395C6.44732 7.76018 6.5 7.633 6.5 7.50039V1.70727L8.14625 3.35414C8.24007 3.44796 8.36732 3.50067 8.5 3.50067C8.63268 3.50067 8.75993 3.44796 8.85375 3.35414C8.94757 3.26032 9.00028 3.13308 9.00028 3.00039C9.00028 2.86771 8.94757 2.74046 8.85375 2.64664L6.35375 0.146643C6.30731 0.100155 6.25217 0.0632756 6.19147 0.0381134C6.13077 0.0129513 6.06571 0 6 0C5.93429 0 5.86923 0.0129513 5.80853 0.0381134C5.74783 0.0632756 5.69269 0.100155 5.64625 0.146643L3.14625 2.64664C3.05243 2.74046 2.99972 2.86771 2.99972 3.00039C2.99972 3.13308 3.05243 3.26032 3.14625 3.35414C3.24007 3.44796 3.36732 3.50067 3.5 3.50067C3.63268 3.50067 3.75993 3.44796 3.85375 3.35414Z" fill="white"/>
</svg>
