<svg width="20" height="18" viewBox="0 0 20 18" fill="none" xmlns="http://www.w3.org/2000/svg">
<path d="M19.25 6.75044C19.2501 6.90623 19.2017 7.05818 19.1114 7.18519C19.0212 7.31221 18.8937 7.40797 18.7466 7.45919L2 13.2839V17.2504C2 17.4493 1.92098 17.6401 1.78033 17.7808C1.63968 17.9214 1.44891 18.0004 1.25 18.0004C1.05109 18.0004 0.860322 17.9214 0.71967 17.7808C0.579018 17.6401 0.5 17.4493 0.5 17.2504V0.750437C0.49993 0.630723 0.528519 0.512731 0.583376 0.406325C0.638233 0.299919 0.717765 0.208191 0.815323 0.138808C0.912881 0.069425 1.02563 0.0244038 1.14415 0.00750764C1.26266 -0.00938852 1.3835 0.00233105 1.49656 0.0416872L18.7466 6.04169C18.8937 6.0929 19.0212 6.18867 19.1114 6.31568C19.2017 6.44269 19.2501 6.59464 19.25 6.75044Z" fill="#0357F8"/>
</svg>
