<svg width="24" height="24" viewBox="0 0 24 24" fill="none" xmlns="http://www.w3.org/2000/svg">
<path d="M1.5 8.96667C1.5 6.35309 1.5 5.0463 2.00864 4.04804C2.45605 3.16995 3.16995 2.45605 4.04804 2.00864C5.0463 1.5 6.35309 1.5 8.96667 1.5H15.0333C17.6469 1.5 18.9537 1.5 19.952 2.00864C20.83 2.45605 21.544 3.16995 21.9914 4.04804C22.5 5.0463 22.5 6.35309 22.5 8.96667V15.0333C22.5 17.6469 22.5 18.9537 21.9914 19.952C21.544 20.83 20.83 21.544 19.952 21.9914C18.9537 22.5 17.6469 22.5 15.0333 22.5H8.96667C6.35309 22.5 5.0463 22.5 4.04804 21.9914C3.16995 21.544 2.45605 20.83 2.00864 19.952C1.5 18.9537 1.5 17.6469 1.5 15.0333V8.96667Z" fill="white"/>
<path d="M3.75 17.6699C3.75 18.2666 4.23748 18.7499 4.83811 18.7499H4.85375C4.24393 18.7499 3.75 18.2666 3.75 17.6699Z" fill="#FBBC05"/>
<path d="M13.1011 9.29998V12.1197L16.9026 9.05338V6.32999C16.9026 5.7333 16.4151 5.25 15.8144 5.25H7.57865L7.57129 9.29998H13.1011Z" fill="#FBBC05"/>
<path d="M13.1011 14.9403H7.5621L7.55566 18.75H15.8145C16.416 18.75 16.9026 18.2667 16.9026 17.67V15.2112L13.1011 12.1206V14.9403Z" fill="#34A853"/>
<path d="M7.57816 5.25L3.75 9.29998H7.57172L7.57816 5.25Z" fill="#EA4335"/>
<path d="M3.75 14.9404V17.6701C3.75 18.2668 4.24393 18.7501 4.85375 18.7501H7.55517L7.56161 14.9404H3.75Z" fill="#1967D2"/>
<path d="M7.57172 9.2998H3.75V14.9401H7.56161L7.57172 9.2998Z" fill="#4285F4"/>
<path d="M20.2449 16.7097V7.43977C20.0306 6.20948 18.6813 7.61977 18.6813 7.61977L16.9033 9.05347V15.2103L19.4484 17.2794C20.3672 17.4 20.2449 16.7097 20.2449 16.7097Z" fill="#34A853"/>
<path d="M13.1006 12.1196L16.903 15.2111V9.0542L13.1006 12.1196Z" fill="#188038"/>
</svg>
