<svg width="40" height="40" viewBox="0 0 40 40" fill="none" xmlns="http://www.w3.org/2000/svg">
<rect width="40" height="40" rx="20" fill="#171B1A"/>
<rect x="1.5" y="1.5" width="37" height="37" rx="18.5" stroke="white" stroke-opacity="0.12" stroke-width="3"/>
<path d="M28.1156 23.678C27.9763 24.7366 27.4564 25.7083 26.6531 26.4116C25.8497 27.1149 24.8177 27.5018 23.75 27.4998C17.5469 27.4998 12.5 22.453 12.5 16.2498C12.4981 15.1821 12.8849 14.1502 13.5882 13.3468C14.2916 12.5434 15.2633 12.0235 16.3219 11.8842C16.5896 11.8515 16.8607 11.9063 17.0947 12.0403C17.3287 12.1744 17.5131 12.3805 17.6203 12.628L19.2703 16.3116V16.3209C19.3524 16.5104 19.3863 16.7172 19.369 16.9229C19.3517 17.1286 19.2837 17.3268 19.1711 17.4998C19.157 17.5209 19.1422 17.5405 19.1266 17.56L17.5 19.4881C18.0852 20.6772 19.3289 21.91 20.5336 22.4967L22.4352 20.8787C22.4538 20.8631 22.4734 20.8484 22.4938 20.835C22.6666 20.7197 22.8655 20.6493 23.0725 20.6302C23.2794 20.6111 23.4878 20.6439 23.6789 20.7256L23.6891 20.7303L27.3695 22.3795C27.6174 22.4864 27.8241 22.6706 27.9585 22.9047C28.093 23.1387 28.1481 23.41 28.1156 23.678ZM22.5 18.1248H25.625C25.7908 18.1248 25.9497 18.059 26.0669 17.9418C26.1842 17.8246 26.25 17.6656 26.25 17.4998C26.25 17.3341 26.1842 17.1751 26.0669 17.0579C25.9497 16.9407 25.7908 16.8748 25.625 16.8748H24.0094L26.6922 14.192C26.8095 14.0748 26.8754 13.9157 26.8754 13.7498C26.8754 13.584 26.8095 13.4249 26.6922 13.3077C26.5749 13.1904 26.4159 13.1245 26.25 13.1245C26.0842 13.1245 25.9251 13.1904 25.8078 13.3077L23.125 15.9912V14.3748C23.125 14.2091 23.0592 14.0501 22.9419 13.9329C22.8247 13.8157 22.6658 13.7498 22.5 13.7498C22.3342 13.7498 22.1753 13.8157 22.0581 13.9329C21.9409 14.0501 21.875 14.2091 21.875 14.3748V17.4998C21.875 17.6656 21.9409 17.8246 22.0581 17.9418C22.1753 18.059 22.3342 18.1248 22.5 18.1248Z" fill="url(#paint0_linear_1491_1884)"/>
<defs>
<linearGradient id="paint0_linear_1491_1884" x1="20.3124" y1="11.875" x2="23.75" y2="39.0623" gradientUnits="userSpaceOnUse">
<stop offset="0.169577" stop-color="white"/>
<stop offset="1" stop-color="white" stop-opacity="0"/>
</linearGradient>
</defs>
</svg>
