<svg width="14" height="16" viewBox="0 0 14 16" fill="none" xmlns="http://www.w3.org/2000/svg">
<path d="M12.625 5.625H10.375V3.9375C10.375 3.04239 10.0194 2.18395 9.38649 1.55101C8.75355 0.918079 7.89511 0.5625 7 0.5625C6.10489 0.5625 5.24645 0.918079 4.61351 1.55101C3.98058 2.18395 3.625 3.04239 3.625 3.9375V5.625H1.375C1.07663 5.625 0.790483 5.74353 0.579505 5.9545C0.368526 6.16548 0.25 6.45163 0.25 6.75V14.625C0.25 14.9234 0.368526 15.2095 0.579505 15.4205C0.790483 15.6315 1.07663 15.75 1.375 15.75H12.625C12.9234 15.75 13.2095 15.6315 13.4205 15.4205C13.6315 15.2095 13.75 14.9234 13.75 14.625V6.75C13.75 6.45163 13.6315 6.16548 13.4205 5.9545C13.2095 5.74353 12.9234 5.625 12.625 5.625ZM7.5625 11.1537V12.9375C7.5625 13.0867 7.50324 13.2298 7.39775 13.3352C7.29226 13.4407 7.14918 13.5 7 13.5C6.85082 13.5 6.70774 13.4407 6.60225 13.3352C6.49676 13.2298 6.4375 13.0867 6.4375 12.9375V11.1537C6.06219 11.021 5.74588 10.7599 5.54446 10.4165C5.34304 10.0732 5.26949 9.66966 5.3368 9.27732C5.40412 8.88498 5.60797 8.52907 5.91232 8.27249C6.21667 8.01591 6.60193 7.87518 7 7.87518C7.39807 7.87518 7.78333 8.01591 8.08768 8.27249C8.39204 8.52907 8.59588 8.88498 8.6632 9.27732C8.73051 9.66966 8.65696 10.0732 8.45554 10.4165C8.25412 10.7599 7.93781 11.021 7.5625 11.1537ZM9.25 5.625H4.75V3.9375C4.75 3.34076 4.98705 2.76847 5.40901 2.34651C5.83097 1.92455 6.40326 1.6875 7 1.6875C7.59674 1.6875 8.16903 1.92455 8.59099 2.34651C9.01295 2.76847 9.25 3.34076 9.25 3.9375V5.625Z" fill="#667287"/>
</svg>
