<svg width="39" height="24" viewBox="0 0 39 24" fill="none" xmlns="http://www.w3.org/2000/svg">
<rect x="34.5009" y="9.00422" width="3.8641" height="6.62417" rx="1.93205" fill="white" stroke="white" stroke-width="0.552014"/>
<rect x="0.276007" y="9.00422" width="3.8641" height="6.62417" rx="1.93205" fill="white" stroke="white" stroke-width="0.552014"/>
<rect x="1.83923" y="0.723993" width="34.9623" height="22.552" rx="11.276" stroke="#0357F8" stroke-width="0.552014"/>
<rect x="3.21939" y="2.10403" width="32.2022" height="19.7919" rx="9.89597" stroke="white" stroke-width="2.20806"/>
<circle cx="26.0192" cy="11.2242" r="2.19194" fill="white" stroke="white" stroke-width="0.552014"/>
<circle cx="12.6216" cy="11.2244" r="2.19194" fill="white" stroke="white" stroke-width="0.552014"/>
<mask id="path-7-inside-1_314_779" fill="white">
<path d="M21.7178 12.6346C21.7178 12.962 21.6526 13.2861 21.5262 13.588C21.3997 13.89 21.2144 14.1637 20.9811 14.3934C20.7478 14.623 20.4712 14.804 20.1673 14.9257C19.8634 15.0474 19.5383 15.1074 19.2109 15.1022C18.8836 15.0971 18.5606 15.0269 18.2607 14.8957C17.9607 14.7645 17.6899 14.5749 17.464 14.338C17.238 14.1011 17.0615 13.8216 16.9446 13.5159C16.8277 13.2101 16.7728 12.8841 16.7831 12.5569L19.2498 12.6346H21.7178Z"/>
</mask>
<path d="M21.7178 12.6346C21.7178 12.962 21.6526 13.2861 21.5262 13.588C21.3997 13.89 21.2144 14.1637 20.9811 14.3934C20.7478 14.623 20.4712 14.804 20.1673 14.9257C19.8634 15.0474 19.5383 15.1074 19.2109 15.1022C18.8836 15.0971 18.5606 15.0269 18.2607 14.8957C17.9607 14.7645 17.6899 14.5749 17.464 14.338C17.238 14.1011 17.0615 13.8216 16.9446 13.5159C16.8277 13.2101 16.7728 12.8841 16.7831 12.5569L19.2498 12.6346H21.7178Z" fill="white" stroke="white" stroke-width="1.10403" mask="url(#path-7-inside-1_314_779)"/>
</svg>
