<svg xmlns="http://www.w3.org/2000/svg" width="258" height="49" viewBox="0 0 258 49" fill="none">
    <mask id="path-1-outside-1_1225_495" maskUnits="userSpaceOnUse" x="146" y="8" width="69"
        height="26" fill="black">
        <rect fill="white" x="146" y="8" width="69" height="26" />
        <path
            d="M163.372 8.96V32H160.844V29.952H160.78C159.351 31.68 157.442 32.544 155.052 32.544C152.898 32.544 151.063 31.7867 149.548 30.272C148.055 28.736 147.308 26.752 147.308 24.32C147.308 21.9947 148.044 20.0533 149.516 18.496C150.988 16.9387 152.834 16.16 155.052 16.16C156.375 16.16 157.474 16.3947 158.348 16.864C159.223 17.312 160.034 17.9733 160.78 18.848H160.844V8.96H163.372ZM151.404 20.16C150.423 21.3333 149.932 22.72 149.932 24.32C149.932 25.92 150.423 27.3173 151.404 28.512C152.407 29.7067 153.772 30.304 155.5 30.304C157.036 30.304 158.348 29.7493 159.436 28.64C160.524 27.5307 161.068 26.1227 161.068 24.416C161.068 22.624 160.535 21.1733 159.468 20.064C158.423 18.9333 157.122 18.368 155.564 18.368C153.794 18.368 152.407 18.9653 151.404 20.16ZM175.738 16.256V18.592C175.098 18.4853 174.607 18.432 174.266 18.432C173.092 18.432 172.143 18.88 171.418 19.776C170.692 20.672 170.33 22.0373 170.33 23.872V32H167.802V16.672H170.33V18.592H170.394C170.692 17.9947 171.215 17.44 171.962 16.928C172.708 16.416 173.54 16.16 174.458 16.16C174.948 16.16 175.375 16.192 175.738 16.256ZM184.331 16.16C185.653 16.16 186.827 16.416 187.851 16.928C188.875 17.44 189.664 18.1013 190.219 18.912C190.795 19.7227 191.221 20.576 191.499 21.472C191.776 22.3467 191.915 23.232 191.915 24.128C191.915 24.5333 191.893 24.8427 191.851 25.056H179.339C179.339 26.4427 179.883 27.6693 180.971 28.736C182.059 29.7813 183.328 30.304 184.779 30.304C186.357 30.304 187.669 29.6853 188.715 28.448H191.627C191.029 29.5787 190.155 30.5493 189.003 31.36C187.872 32.1493 186.485 32.544 184.843 32.544C182.432 32.544 180.469 31.744 178.955 30.144C177.461 28.544 176.715 26.5387 176.715 24.128C176.715 21.9307 177.419 20.0533 178.827 18.496C180.235 16.9387 182.069 16.16 184.331 16.16ZM184.331 18.368C182.944 18.368 181.803 18.8267 180.907 19.744C180.011 20.64 179.499 21.7067 179.371 22.944H189.259C189.131 21.6853 188.608 20.608 187.691 19.712C186.795 18.816 185.675 18.368 184.331 18.368ZM206.734 32L204.494 22.944C204.259 21.92 204.035 20.8107 203.822 19.616H203.694C203.481 21.0667 203.225 22.3893 202.926 23.584L200.878 32H197.582L193.55 16.672H196.11L198.51 26.784C198.766 27.9147 198.979 28.928 199.15 29.824H199.278C199.385 29.248 199.63 28.1813 200.014 26.624L202.414 16.672H205.166L207.662 26.752C207.875 27.6267 208.099 28.6507 208.334 29.824H208.43C208.579 28.7573 208.771 27.744 209.006 26.784L211.47 16.672H213.998L209.966 32H206.734Z" />
    </mask>
    <path
        d="M163.372 8.96V32H160.844V29.952H160.78C159.351 31.68 157.442 32.544 155.052 32.544C152.898 32.544 151.063 31.7867 149.548 30.272C148.055 28.736 147.308 26.752 147.308 24.32C147.308 21.9947 148.044 20.0533 149.516 18.496C150.988 16.9387 152.834 16.16 155.052 16.16C156.375 16.16 157.474 16.3947 158.348 16.864C159.223 17.312 160.034 17.9733 160.78 18.848H160.844V8.96H163.372ZM151.404 20.16C150.423 21.3333 149.932 22.72 149.932 24.32C149.932 25.92 150.423 27.3173 151.404 28.512C152.407 29.7067 153.772 30.304 155.5 30.304C157.036 30.304 158.348 29.7493 159.436 28.64C160.524 27.5307 161.068 26.1227 161.068 24.416C161.068 22.624 160.535 21.1733 159.468 20.064C158.423 18.9333 157.122 18.368 155.564 18.368C153.794 18.368 152.407 18.9653 151.404 20.16ZM175.738 16.256V18.592C175.098 18.4853 174.607 18.432 174.266 18.432C173.092 18.432 172.143 18.88 171.418 19.776C170.692 20.672 170.33 22.0373 170.33 23.872V32H167.802V16.672H170.33V18.592H170.394C170.692 17.9947 171.215 17.44 171.962 16.928C172.708 16.416 173.54 16.16 174.458 16.16C174.948 16.16 175.375 16.192 175.738 16.256ZM184.331 16.16C185.653 16.16 186.827 16.416 187.851 16.928C188.875 17.44 189.664 18.1013 190.219 18.912C190.795 19.7227 191.221 20.576 191.499 21.472C191.776 22.3467 191.915 23.232 191.915 24.128C191.915 24.5333 191.893 24.8427 191.851 25.056H179.339C179.339 26.4427 179.883 27.6693 180.971 28.736C182.059 29.7813 183.328 30.304 184.779 30.304C186.357 30.304 187.669 29.6853 188.715 28.448H191.627C191.029 29.5787 190.155 30.5493 189.003 31.36C187.872 32.1493 186.485 32.544 184.843 32.544C182.432 32.544 180.469 31.744 178.955 30.144C177.461 28.544 176.715 26.5387 176.715 24.128C176.715 21.9307 177.419 20.0533 178.827 18.496C180.235 16.9387 182.069 16.16 184.331 16.16ZM184.331 18.368C182.944 18.368 181.803 18.8267 180.907 19.744C180.011 20.64 179.499 21.7067 179.371 22.944H189.259C189.131 21.6853 188.608 20.608 187.691 19.712C186.795 18.816 185.675 18.368 184.331 18.368ZM206.734 32L204.494 22.944C204.259 21.92 204.035 20.8107 203.822 19.616H203.694C203.481 21.0667 203.225 22.3893 202.926 23.584L200.878 32H197.582L193.55 16.672H196.11L198.51 26.784C198.766 27.9147 198.979 28.928 199.15 29.824H199.278C199.385 29.248 199.63 28.1813 200.014 26.624L202.414 16.672H205.166L207.662 26.752C207.875 27.6267 208.099 28.6507 208.334 29.824H208.43C208.579 28.7573 208.771 27.744 209.006 26.784L211.47 16.672H213.998L209.966 32H206.734Z"
        fill="#0357F8" />
    <path
        d="M163.372 8.96H163.872V8.46H163.372V8.96ZM163.372 32V32.5H163.872V32H163.372ZM160.844 32H160.344V32.5H160.844V32ZM160.844 29.952H161.344V29.452H160.844V29.952ZM160.78 29.952V29.452H160.545L160.395 29.6333L160.78 29.952ZM149.548 30.272L149.19 30.6206L149.195 30.6256L149.548 30.272ZM149.516 18.496L149.153 18.1525L149.153 18.1525L149.516 18.496ZM158.348 16.864L158.112 17.3047L158.12 17.309L158.348 16.864ZM160.78 18.848L160.4 19.1726L160.55 19.348H160.78V18.848ZM160.844 18.848V19.348H161.344V18.848H160.844ZM160.844 8.96V8.46H160.344V8.96H160.844ZM151.404 20.16L151.021 19.8386L151.021 19.8392L151.404 20.16ZM151.404 28.512L151.018 28.8294L151.021 28.8334L151.404 28.512ZM159.436 28.64L159.079 28.2899L159.436 28.64ZM159.468 20.064L159.101 20.4035L159.108 20.4106L159.468 20.064ZM162.872 8.96V32H163.872V8.96H162.872ZM163.372 31.5H160.844V32.5H163.372V31.5ZM161.344 32V29.952H160.344V32H161.344ZM160.844 29.452H160.78V30.452H160.844V29.452ZM160.395 29.6333C159.068 31.2381 157.304 32.044 155.052 32.044V33.044C157.579 33.044 159.634 32.1219 161.166 30.2707L160.395 29.6333ZM155.052 32.044C153.029 32.044 151.322 31.3387 149.902 29.9184L149.195 30.6256C150.804 32.2346 152.766 33.044 155.052 33.044V32.044ZM149.907 29.9235C148.517 28.4936 147.808 26.6409 147.808 24.32H146.808C146.808 26.8631 147.593 28.9784 149.19 30.6205L149.907 29.9235ZM147.808 24.32C147.808 22.1105 148.503 20.2957 149.88 18.8395L149.153 18.1525C147.585 19.811 146.808 21.8788 146.808 24.32H147.808ZM149.88 18.8395C151.253 17.386 152.966 16.66 155.052 16.66V15.66C152.702 15.66 150.723 16.4914 149.153 18.1525L149.88 18.8395ZM155.052 16.66C156.319 16.66 157.33 16.8851 158.112 17.3046L158.585 16.4234C157.617 15.9043 156.431 15.66 155.052 15.66V16.66ZM158.12 17.309C158.928 17.7226 159.689 18.3393 160.4 19.1726L161.161 18.5234C160.379 17.6073 159.518 16.9014 158.576 16.419L158.12 17.309ZM160.78 19.348H160.844V18.348H160.78V19.348ZM161.344 18.848V8.96H160.344V18.848H161.344ZM160.844 9.46H163.372V8.46H160.844V9.46ZM151.021 19.8392C149.96 21.1069 149.432 22.6086 149.432 24.32H150.432C150.432 22.8314 150.885 21.5598 151.788 20.4808L151.021 19.8392ZM149.432 24.32C149.432 26.0314 149.96 27.5419 151.018 28.8294L151.791 28.1946C150.885 27.0927 150.432 25.8086 150.432 24.32H149.432ZM151.021 28.8334C152.13 30.1544 153.642 30.804 155.5 30.804V29.804C153.902 29.804 152.684 29.2589 151.787 28.1906L151.021 28.8334ZM155.5 30.804C157.172 30.804 158.612 30.1941 159.793 28.9901L159.079 28.2899C158.084 29.3046 156.9 29.804 155.5 29.804V30.804ZM159.793 28.9901C160.982 27.7777 161.568 26.2395 161.568 24.416H160.568C160.568 26.0059 160.066 27.2837 159.079 28.2899L159.793 28.9901ZM161.568 24.416C161.568 22.5176 161 20.9352 159.829 19.7174L159.108 20.4106C160.07 21.4115 160.568 22.7304 160.568 24.416H161.568ZM159.835 19.7246C158.694 18.4902 157.259 17.868 155.564 17.868V18.868C156.984 18.868 158.152 19.3764 159.101 20.4034L159.835 19.7246ZM155.564 17.868C153.668 17.868 152.132 18.5146 151.021 19.8386L151.787 20.4814C152.681 19.4161 153.919 18.868 155.564 18.868V17.868ZM175.738 16.256H176.238V15.8365L175.825 15.7636L175.738 16.256ZM175.738 18.592L175.656 19.0852L176.238 19.1822V18.592H175.738ZM171.418 19.776L171.029 19.4614L171.029 19.4614L171.418 19.776ZM170.33 32V32.5H170.83V32H170.33ZM167.802 32H167.302V32.5H167.802V32ZM167.802 16.672V16.172H167.302V16.672H167.802ZM170.33 16.672H170.83V16.172H170.33V16.672ZM170.33 18.592H169.83V19.092H170.33V18.592ZM170.394 18.592V19.092H170.703L170.841 18.8156L170.394 18.592ZM171.962 16.928L172.245 17.3404L172.245 17.3404L171.962 16.928ZM175.238 16.256V18.592H176.238V16.256H175.238ZM175.82 18.0988C175.172 17.9909 174.649 17.932 174.266 17.932V18.932C174.565 18.932 175.023 18.9798 175.656 19.0852L175.82 18.0988ZM174.266 17.932C172.945 17.932 171.851 18.4457 171.029 19.4614L171.806 20.0906C172.435 19.3143 173.24 18.932 174.266 18.932V17.932ZM171.029 19.4614C170.2 20.4856 169.83 21.9863 169.83 23.872H170.83C170.83 22.0884 171.185 20.8584 171.806 20.0906L171.029 19.4614ZM169.83 23.872V32H170.83V23.872H169.83ZM170.33 31.5H167.802V32.5H170.33V31.5ZM168.302 32V16.672H167.302V32H168.302ZM167.802 17.172H170.33V16.172H167.802V17.172ZM169.83 16.672V18.592H170.83V16.672H169.83ZM170.33 19.092H170.394V18.092H170.33V19.092ZM170.841 18.8156C171.091 18.3163 171.544 17.8207 172.245 17.3404L171.679 16.5156C170.886 17.0593 170.294 17.673 169.947 18.3684L170.841 18.8156ZM172.245 17.3404C172.907 16.8862 173.64 16.66 174.458 16.66V15.66C173.441 15.66 172.51 15.9457 171.679 16.5156L172.245 17.3404ZM174.458 16.66C174.928 16.66 175.325 16.6908 175.651 16.7484L175.825 15.7636C175.426 15.6932 174.969 15.66 174.458 15.66V16.66ZM187.851 16.928L187.627 17.3752L187.627 17.3752L187.851 16.928ZM190.219 18.912L189.806 19.1944L189.811 19.2016L190.219 18.912ZM191.499 21.472L191.021 21.6198L191.022 21.6231L191.499 21.472ZM191.851 25.056V25.556H192.26L192.341 25.1541L191.851 25.056ZM179.339 25.056V24.556H178.839V25.056H179.339ZM180.971 28.736L180.62 29.0931L180.624 29.0966L180.971 28.736ZM188.715 28.448V27.948H188.482L188.333 28.1253L188.715 28.448ZM191.627 28.448L192.069 28.6816L192.456 27.948H191.627V28.448ZM189.003 31.36L189.289 31.77L189.29 31.7689L189.003 31.36ZM178.955 30.144L178.589 30.4852L178.591 30.4877L178.955 30.144ZM178.827 18.496L178.456 18.1607L178.456 18.1607L178.827 18.496ZM180.907 19.744L181.26 20.0976L181.264 20.0934L180.907 19.744ZM179.371 22.944L178.873 22.8925L178.816 23.444H179.371V22.944ZM189.259 22.944V23.444H189.812L189.756 22.8934L189.259 22.944ZM187.691 19.712L187.337 20.0656L187.341 20.0697L187.691 19.712ZM184.331 16.66C185.588 16.66 186.682 16.9029 187.627 17.3752L188.074 16.4808C186.971 15.929 185.719 15.66 184.331 15.66V16.66ZM187.627 17.3752C188.588 17.8555 189.307 18.4646 189.806 19.1943L190.631 18.6297C190.021 17.738 189.161 17.0245 188.074 16.4808L187.627 17.3752ZM189.811 19.2016C190.358 19.9716 190.76 20.7775 191.021 21.6198L191.976 21.3242C191.682 20.3745 191.231 19.4737 190.626 18.6224L189.811 19.2016ZM191.022 21.6231C191.284 22.4501 191.415 23.2845 191.415 24.128H192.415C192.415 23.1795 192.268 22.2432 191.975 21.3209L191.022 21.6231ZM191.415 24.128C191.415 24.5234 191.393 24.7935 191.36 24.9579L192.341 25.1541C192.393 24.8918 192.415 24.5433 192.415 24.128H191.415ZM191.851 24.556H179.339V25.556H191.851V24.556ZM178.839 25.056C178.839 26.5909 179.447 27.9426 180.62 29.093L181.321 28.379C180.318 27.3961 179.839 26.2944 179.839 25.056H178.839ZM180.624 29.0966C181.801 30.2274 183.193 30.804 184.779 30.804V29.804C183.463 29.804 182.316 29.3353 181.317 28.3754L180.624 29.0966ZM184.779 30.804C186.509 30.804 187.959 30.1171 189.096 28.7707L188.333 28.1253C187.379 29.2536 186.206 29.804 184.779 29.804V30.804ZM188.715 28.948H191.627V27.948H188.715V28.948ZM191.184 28.2144C190.628 29.2684 189.809 30.1812 188.715 30.9511L189.29 31.7689C190.5 30.9175 191.431 29.8889 192.069 28.6816L191.184 28.2144ZM188.716 30.95C187.685 31.6703 186.403 32.044 184.843 32.044V33.044C186.568 33.044 188.059 32.6284 189.289 31.77L188.716 30.95ZM184.843 32.044C182.555 32.044 180.728 31.2905 179.318 29.8003L178.591 30.4877C180.21 32.1975 182.309 33.044 184.843 33.044V32.044ZM179.32 29.8028C177.922 28.3052 177.215 26.426 177.215 24.128H176.215C176.215 26.6513 177 28.7828 178.589 30.4852L179.32 29.8028ZM177.215 24.128C177.215 22.0482 177.877 20.2921 179.197 18.8313L178.456 18.1607C176.96 19.8145 176.215 21.8131 176.215 24.128H177.215ZM179.197 18.8313C180.503 17.3876 182.198 16.66 184.331 16.66V15.66C181.94 15.66 179.966 16.4897 178.456 18.1607L179.197 18.8313ZM184.331 17.868C182.821 17.868 181.547 18.3726 180.549 19.3946L181.264 20.0934C182.058 19.2807 183.066 18.868 184.331 18.868V17.868ZM180.553 19.3904C179.577 20.366 179.013 21.5387 178.873 22.8925L179.868 22.9954C179.984 21.8746 180.444 20.914 181.26 20.0976L180.553 19.3904ZM179.371 23.444H189.259V22.444H179.371V23.444ZM189.756 22.8934C189.616 21.5165 189.04 20.331 188.04 19.3543L187.341 20.0697C188.176 20.885 188.645 21.8542 188.761 22.9946L189.756 22.8934ZM188.044 19.3584C187.048 18.3625 185.798 17.868 184.331 17.868V18.868C185.551 18.868 186.541 19.2695 187.337 20.0656L188.044 19.3584ZM206.734 32L206.249 32.1201L206.343 32.5H206.734V32ZM204.494 22.944L204.007 23.0557L204.009 23.0641L204.494 22.944ZM203.822 19.616L204.314 19.5281L204.241 19.116H203.822V19.616ZM203.694 19.616V19.116H203.262L203.199 19.5433L203.694 19.616ZM202.926 23.584L202.441 23.4627L202.44 23.4658L202.926 23.584ZM200.878 32V32.5H201.271L201.364 32.1182L200.878 32ZM197.582 32L197.098 32.1272L197.197 32.5H197.582V32ZM193.55 16.672V16.172H192.901L193.066 16.7992L193.55 16.672ZM196.11 16.672L196.596 16.5565L196.505 16.172H196.11V16.672ZM198.51 26.784L198.998 26.6736L198.996 26.6685L198.51 26.784ZM199.15 29.824L198.659 29.9176L198.736 30.324H199.15V29.824ZM199.278 29.824V30.324H199.694L199.77 29.915L199.278 29.824ZM200.014 26.624L200.499 26.7437L200.5 26.7412L200.014 26.624ZM202.414 16.672V16.172H202.02L201.928 16.5548L202.414 16.672ZM205.166 16.672L205.651 16.5518L205.557 16.172H205.166V16.672ZM207.662 26.752L208.148 26.6335L208.147 26.6318L207.662 26.752ZM208.334 29.824L207.844 29.9221L207.924 30.324H208.334V29.824ZM208.43 29.824V30.324H208.865L208.925 29.8933L208.43 29.824ZM209.006 26.784L209.492 26.9027L209.492 26.9024L209.006 26.784ZM211.47 16.672V16.172H211.077L210.984 16.5536L211.47 16.672ZM213.998 16.672L214.482 16.7992L214.647 16.172H213.998V16.672ZM209.966 32V32.5H210.351L210.45 32.1272L209.966 32ZM207.219 31.8799L204.979 22.8239L204.009 23.0641L206.249 32.1201L207.219 31.8799ZM204.981 22.8323C204.749 21.8173 204.526 20.716 204.314 19.5281L203.33 19.7039C203.544 20.9053 203.77 22.0227 204.007 23.0557L204.981 22.8323ZM203.822 19.116H203.694V20.116H203.822V19.116ZM203.199 19.5433C202.988 20.9806 202.735 22.2867 202.441 23.4627L203.411 23.7053C203.714 22.4919 203.973 21.1528 204.189 19.6887L203.199 19.5433ZM202.44 23.4658L200.392 31.8818L201.364 32.1182L203.412 23.7022L202.44 23.4658ZM200.878 31.5H197.582V32.5H200.878V31.5ZM198.066 31.8728L194.034 16.5448L193.066 16.7992L197.098 32.1272L198.066 31.8728ZM193.55 17.172H196.11V16.172H193.55V17.172ZM195.624 16.7875L198.024 26.8995L198.996 26.6685L196.596 16.5565L195.624 16.7875ZM198.022 26.8944C198.277 28.0209 198.489 29.0285 198.659 29.9176L199.641 29.7304C199.469 28.8275 199.255 27.8084 198.998 26.6736L198.022 26.8944ZM199.15 30.324H199.278V29.324H199.15V30.324ZM199.77 29.915C199.873 29.3555 200.115 28.3024 200.499 26.7437L199.529 26.5043C199.145 28.0602 198.896 29.1405 198.786 29.733L199.77 29.915ZM200.5 26.7412L202.9 16.7892L201.928 16.5548L199.528 26.5068L200.5 26.7412ZM202.414 17.172H205.166V16.172H202.414V17.172ZM204.681 16.7922L207.177 26.8722L208.147 26.6318L205.651 16.5518L204.681 16.7922ZM207.176 26.8705C207.387 27.7366 207.61 28.7535 207.844 29.9221L208.824 29.7259C208.589 28.5478 208.363 27.5167 208.148 26.6335L207.176 26.8705ZM208.334 30.324H208.43V29.324H208.334V30.324ZM208.925 29.8933C209.072 28.8418 209.261 27.8451 209.492 26.9027L208.52 26.6653C208.281 27.6429 208.086 28.6729 207.935 29.7547L208.925 29.8933ZM209.492 26.9024L211.956 16.7904L210.984 16.5536L208.52 26.6656L209.492 26.9024ZM211.47 17.172H213.998V16.172H211.47V17.172ZM213.514 16.5448L209.482 31.8728L210.45 32.1272L214.482 16.7992L213.514 16.5448ZM209.966 31.5H206.734V32.5H209.966V31.5Z"
        fill="#0357F8" mask="url(#path-1-outside-1_1225_495)" />
    <mask id="path-3-outside-2_1225_495" maskUnits="userSpaceOnUse" x="79" y="8" width="67"
        height="26" fill="black">
        <rect fill="white" x="79" y="8" width="67" height="26" />
        <path
            d="M80.4111 32V8.96H82.9391V18.592H83.0031C84.2831 16.9707 85.8938 16.16 87.8351 16.16C89.4565 16.16 90.8645 16.7147 92.0591 17.824C93.2751 18.9333 93.8831 20.6827 93.8831 23.072V32H91.3551V23.2C91.3551 21.6853 91.0031 20.512 90.2991 19.68C89.6165 18.848 88.6671 18.432 87.4511 18.432C86.0431 18.432 84.9338 18.8907 84.1231 19.808C83.3338 20.7253 82.9391 22.0587 82.9391 23.808V32H80.4111ZM104.502 16.16C105.825 16.16 106.998 16.416 108.022 16.928C109.046 17.44 109.836 18.1013 110.39 18.912C110.966 19.7227 111.393 20.576 111.67 21.472C111.948 22.3467 112.086 23.232 112.086 24.128C112.086 24.5333 112.065 24.8427 112.022 25.056H99.5104C99.5104 26.4427 100.054 27.6693 101.142 28.736C102.23 29.7813 103.5 30.304 104.95 30.304C106.529 30.304 107.841 29.6853 108.886 28.448H111.798C111.201 29.5787 110.326 30.5493 109.174 31.36C108.044 32.1493 106.657 32.544 105.014 32.544C102.604 32.544 100.641 31.744 99.1264 30.144C97.633 28.544 96.8864 26.5387 96.8864 24.128C96.8864 21.9307 97.5904 20.0533 98.9984 18.496C100.406 16.9387 102.241 16.16 104.502 16.16ZM104.502 18.368C103.116 18.368 101.974 18.8267 101.078 19.744C100.182 20.64 99.6704 21.7067 99.5424 22.944H109.43C109.302 21.6853 108.78 20.608 107.862 19.712C106.966 18.816 105.846 18.368 104.502 18.368ZM115.442 32V8.96H117.97V32H115.442ZM122.38 32V8.96H124.908V32H122.38ZM128.261 24.32C128.261 21.9733 129.04 20.032 130.597 18.496C132.176 16.9387 134.128 16.16 136.453 16.16C138.821 16.16 140.773 16.9387 142.309 18.496C143.867 20.0533 144.645 21.9947 144.645 24.32C144.645 26.6027 143.867 28.544 142.309 30.144C140.752 31.744 138.8 32.544 136.453 32.544C134.128 32.544 132.176 31.7547 130.597 30.176C129.04 28.5973 128.261 26.6453 128.261 24.32ZM130.885 24.32C130.885 26.0053 131.429 27.4133 132.517 28.544C133.627 29.6747 134.939 30.24 136.453 30.24C138.053 30.24 139.376 29.6747 140.421 28.544C141.488 27.4133 142.021 26.0053 142.021 24.32C142.021 22.656 141.499 21.2587 140.453 20.128C139.429 18.9973 138.096 18.432 136.453 18.432C134.832 18.432 133.499 18.9867 132.453 20.096C131.408 21.2053 130.885 22.6133 130.885 24.32Z" />
    </mask>
    <path
        d="M80.4111 32V8.96H82.9391V18.592H83.0031C84.2831 16.9707 85.8938 16.16 87.8351 16.16C89.4565 16.16 90.8645 16.7147 92.0591 17.824C93.2751 18.9333 93.8831 20.6827 93.8831 23.072V32H91.3551V23.2C91.3551 21.6853 91.0031 20.512 90.2991 19.68C89.6165 18.848 88.6671 18.432 87.4511 18.432C86.0431 18.432 84.9338 18.8907 84.1231 19.808C83.3338 20.7253 82.9391 22.0587 82.9391 23.808V32H80.4111ZM104.502 16.16C105.825 16.16 106.998 16.416 108.022 16.928C109.046 17.44 109.836 18.1013 110.39 18.912C110.966 19.7227 111.393 20.576 111.67 21.472C111.948 22.3467 112.086 23.232 112.086 24.128C112.086 24.5333 112.065 24.8427 112.022 25.056H99.5104C99.5104 26.4427 100.054 27.6693 101.142 28.736C102.23 29.7813 103.5 30.304 104.95 30.304C106.529 30.304 107.841 29.6853 108.886 28.448H111.798C111.201 29.5787 110.326 30.5493 109.174 31.36C108.044 32.1493 106.657 32.544 105.014 32.544C102.604 32.544 100.641 31.744 99.1264 30.144C97.633 28.544 96.8864 26.5387 96.8864 24.128C96.8864 21.9307 97.5904 20.0533 98.9984 18.496C100.406 16.9387 102.241 16.16 104.502 16.16ZM104.502 18.368C103.116 18.368 101.974 18.8267 101.078 19.744C100.182 20.64 99.6704 21.7067 99.5424 22.944H109.43C109.302 21.6853 108.78 20.608 107.862 19.712C106.966 18.816 105.846 18.368 104.502 18.368ZM115.442 32V8.96H117.97V32H115.442ZM122.38 32V8.96H124.908V32H122.38ZM128.261 24.32C128.261 21.9733 129.04 20.032 130.597 18.496C132.176 16.9387 134.128 16.16 136.453 16.16C138.821 16.16 140.773 16.9387 142.309 18.496C143.867 20.0533 144.645 21.9947 144.645 24.32C144.645 26.6027 143.867 28.544 142.309 30.144C140.752 31.744 138.8 32.544 136.453 32.544C134.128 32.544 132.176 31.7547 130.597 30.176C129.04 28.5973 128.261 26.6453 128.261 24.32ZM130.885 24.32C130.885 26.0053 131.429 27.4133 132.517 28.544C133.627 29.6747 134.939 30.24 136.453 30.24C138.053 30.24 139.376 29.6747 140.421 28.544C141.488 27.4133 142.021 26.0053 142.021 24.32C142.021 22.656 141.499 21.2587 140.453 20.128C139.429 18.9973 138.096 18.432 136.453 18.432C134.832 18.432 133.499 18.9867 132.453 20.096C131.408 21.2053 130.885 22.6133 130.885 24.32Z"
        fill="black" />
    <path
        d="M80.4111 32H79.9111V32.5H80.4111V32ZM80.4111 8.96V8.46H79.9111V8.96H80.4111ZM82.9391 8.96H83.4391V8.46H82.9391V8.96ZM82.9391 18.592H82.4391V19.092H82.9391V18.592ZM83.0031 18.592V19.092H83.2454L83.3956 18.9018L83.0031 18.592ZM92.0591 17.824L91.7189 18.1904L91.7221 18.1934L92.0591 17.824ZM93.8831 32V32.5H94.3831V32H93.8831ZM91.3551 32H90.8551V32.5H91.3551V32ZM90.2991 19.68L89.9125 19.9972L89.9174 20.003L90.2991 19.68ZM84.1231 19.808L83.7484 19.4769L83.7441 19.4819L84.1231 19.808ZM82.9391 32V32.5H83.4391V32H82.9391ZM80.9111 32V8.96H79.9111V32H80.9111ZM80.4111 9.46H82.9391V8.46H80.4111V9.46ZM82.4391 8.96V18.592H83.4391V8.96H82.4391ZM82.9391 19.092H83.0031V18.092H82.9391V19.092ZM83.3956 18.9018C84.5878 17.3917 86.0578 16.66 87.8351 16.66V15.66C85.7298 15.66 83.9785 16.5496 82.6107 18.2822L83.3956 18.9018ZM87.8351 16.66C89.3295 16.66 90.6161 17.1664 91.7189 18.1904L92.3994 17.4576C91.1128 16.2629 89.5834 15.66 87.8351 15.66V16.66ZM91.7221 18.1934C92.7947 19.1718 93.3831 20.7588 93.3831 23.072H94.3831C94.3831 20.6066 93.7556 18.6948 92.3961 17.4546L91.7221 18.1934ZM93.3831 23.072V32H94.3831V23.072H93.3831ZM93.8831 31.5H91.3551V32.5H93.8831V31.5ZM91.8551 32V23.2H90.8551V32H91.8551ZM91.8551 23.2C91.8551 21.6129 91.4863 20.309 90.6808 19.357L89.9174 20.003C90.5199 20.715 90.8551 21.7578 90.8551 23.2H91.8551ZM90.6857 19.3628C89.8949 18.3992 88.7949 17.932 87.4511 17.932V18.932C88.5393 18.932 89.338 19.2968 89.9126 19.9972L90.6857 19.3628ZM87.4511 17.932C85.9236 17.932 84.6687 18.4355 83.7485 19.4769L84.4978 20.1391C85.1988 19.3458 86.1626 18.932 87.4511 18.932V17.932ZM83.7441 19.4819C82.8483 20.523 82.4391 21.9913 82.4391 23.808H83.4391C83.4391 22.126 83.8193 20.9277 84.5021 20.1341L83.7441 19.4819ZM82.4391 23.808V32H83.4391V23.808H82.4391ZM82.9391 31.5H80.4111V32.5H82.9391V31.5ZM108.022 16.928L107.799 17.3752L107.799 17.3752L108.022 16.928ZM110.39 18.912L109.978 19.1944L109.983 19.2016L110.39 18.912ZM111.67 21.472L111.193 21.6198L111.194 21.6231L111.67 21.472ZM112.022 25.056V25.556H112.432L112.513 25.1541L112.022 25.056ZM99.5104 25.056V24.556H99.0104V25.056H99.5104ZM101.142 28.736L100.792 29.0931L100.796 29.0966L101.142 28.736ZM108.886 28.448V27.948H108.654L108.504 28.1253L108.886 28.448ZM111.798 28.448L112.24 28.6816L112.628 27.948H111.798V28.448ZM109.174 31.36L109.461 31.77L109.462 31.7689L109.174 31.36ZM99.1264 30.144L98.7608 30.4852L98.7633 30.4877L99.1264 30.144ZM98.9984 18.496L98.6275 18.1607L98.6275 18.1607L98.9984 18.496ZM101.078 19.744L101.432 20.0976L101.436 20.0934L101.078 19.744ZM99.5424 22.944L99.045 22.8925L98.988 23.444H99.5424V22.944ZM109.43 22.944V23.444H109.984L109.928 22.8934L109.43 22.944ZM107.862 19.712L107.509 20.0656L107.513 20.0697L107.862 19.712ZM104.502 16.66C105.759 16.66 106.854 16.9029 107.799 17.3752L108.246 16.4808C107.143 15.929 105.891 15.66 104.502 15.66V16.66ZM107.799 17.3752C108.759 17.8555 109.478 18.4646 109.978 19.1943L110.803 18.6297C110.193 17.738 109.333 17.0245 108.246 16.4808L107.799 17.3752ZM109.983 19.2016C110.53 19.9716 110.932 20.7775 111.193 21.6198L112.148 21.3242C111.854 20.3745 111.403 19.4737 110.798 18.6224L109.983 19.2016ZM111.194 21.6231C111.456 22.4501 111.586 23.2845 111.586 24.128H112.586C112.586 23.1795 112.439 22.2432 112.147 21.3209L111.194 21.6231ZM111.586 24.128C111.586 24.5234 111.565 24.7935 111.532 24.9579L112.513 25.1541C112.565 24.8918 112.586 24.5433 112.586 24.128H111.586ZM112.022 24.556H99.5104V25.556H112.022V24.556ZM99.0104 25.056C99.0104 26.5909 99.6189 27.9426 100.792 29.093L101.492 28.379C100.49 27.3961 100.01 26.2944 100.01 25.056H99.0104ZM100.796 29.0966C101.973 30.2274 103.365 30.804 104.95 30.804V29.804C103.634 29.804 102.488 29.3353 101.489 28.3754L100.796 29.0966ZM104.95 30.804C106.681 30.804 108.131 30.1171 109.268 28.7707L108.504 28.1253C107.551 29.2536 106.377 29.804 104.95 29.804V30.804ZM108.886 28.948H111.798V27.948H108.886V28.948ZM111.356 28.2144C110.799 29.2684 109.981 30.1812 108.887 30.9511L109.462 31.7689C110.672 30.9175 111.603 29.8889 112.24 28.6816L111.356 28.2144ZM108.888 30.95C107.856 31.6703 106.575 32.044 105.014 32.044V33.044C106.739 33.044 108.231 32.6284 109.461 31.77L108.888 30.95ZM105.014 32.044C102.727 32.044 100.9 31.2905 99.4895 29.8003L98.7633 30.4877C100.382 32.1975 102.481 33.044 105.014 33.044V32.044ZM99.4919 29.8028C98.0941 28.3052 97.3864 26.426 97.3864 24.128H96.3864C96.3864 26.6513 97.172 28.7828 98.7608 30.4852L99.4919 29.8028ZM97.3864 24.128C97.3864 22.0482 98.0485 20.2921 99.3693 18.8313L98.6275 18.1607C97.1322 19.8145 96.3864 21.8131 96.3864 24.128H97.3864ZM99.3693 18.8313C100.675 17.3876 102.37 16.66 104.502 16.66V15.66C102.112 15.66 100.138 16.4897 98.6275 18.1607L99.3693 18.8313ZM104.502 17.868C102.993 17.868 101.719 18.3726 100.721 19.3946L101.436 20.0934C102.23 19.2807 103.238 18.868 104.502 18.868V17.868ZM100.725 19.3904C99.7493 20.366 99.1851 21.5387 99.045 22.8925L100.04 22.9954C100.156 21.8746 100.615 20.914 101.432 20.0976L100.725 19.3904ZM99.5424 23.444H109.43V22.444H99.5424V23.444ZM109.928 22.8934C109.788 21.5165 109.212 20.331 108.212 19.3543L107.513 20.0697C108.348 20.885 108.817 21.8542 108.933 22.9946L109.928 22.8934ZM108.216 19.3584C107.22 18.3625 105.97 17.868 104.502 17.868V18.868C105.723 18.868 106.713 19.2695 107.509 20.0656L108.216 19.3584ZM115.442 32H114.942V32.5H115.442V32ZM115.442 8.96V8.46H114.942V8.96H115.442ZM117.97 8.96H118.47V8.46H117.97V8.96ZM117.97 32V32.5H118.47V32H117.97ZM115.942 32V8.96H114.942V32H115.942ZM115.442 9.46H117.97V8.46H115.442V9.46ZM117.47 8.96V32H118.47V8.96H117.47ZM117.97 31.5H115.442V32.5H117.97V31.5ZM122.38 32H121.88V32.5H122.38V32ZM122.38 8.96V8.46H121.88V8.96H122.38ZM124.908 8.96H125.408V8.46H124.908V8.96ZM124.908 32V32.5H125.408V32H124.908ZM122.88 32V8.96H121.88V32H122.88ZM122.38 9.46H124.908V8.46H122.38V9.46ZM124.408 8.96V32H125.408V8.96H124.408ZM124.908 31.5H122.38V32.5H124.908V31.5ZM130.597 18.496L130.948 18.852L130.949 18.8519L130.597 18.496ZM142.309 18.496L141.953 18.8471L141.956 18.8496L142.309 18.496ZM142.309 30.144L141.951 29.7953L141.951 29.7953L142.309 30.144ZM130.597 30.176L130.241 30.5271L130.244 30.5296L130.597 30.176ZM132.517 28.544L132.157 28.8907L132.16 28.8942L132.517 28.544ZM140.421 28.544L140.058 28.2009L140.054 28.2046L140.421 28.544ZM140.453 20.128L140.083 20.4637L140.086 20.4674L140.453 20.128ZM132.453 20.096L132.817 20.4389L132.817 20.4389L132.453 20.096ZM128.761 24.32C128.761 22.0963 129.494 20.2867 130.948 18.852L130.246 18.14C128.586 19.7773 127.761 21.8503 127.761 24.32H128.761ZM130.949 18.8519C132.429 17.3918 134.252 16.66 136.453 16.66V15.66C134.004 15.66 131.923 16.4855 130.246 18.14L130.949 18.8519ZM136.453 16.66C138.7 16.66 140.52 17.3934 141.953 18.8471L142.665 18.1449C141.027 16.4839 138.943 15.66 136.453 15.66V16.66ZM141.956 18.8496C143.414 20.3075 144.145 22.119 144.145 24.32H145.145C145.145 21.8703 144.32 19.7992 142.663 18.1424L141.956 18.8496ZM144.145 24.32C144.145 26.4756 143.415 28.2909 141.951 29.7953L142.668 30.4927C144.318 28.7971 145.145 26.7297 145.145 24.32H144.145ZM141.951 29.7953C140.493 31.2932 138.673 32.044 136.453 32.044V33.044C138.927 33.044 141.011 32.1948 142.668 30.4927L141.951 29.7953ZM136.453 32.044C134.255 32.044 132.432 31.3031 130.951 29.8224L130.244 30.5296C131.921 32.2062 134.002 33.044 136.453 33.044V32.044ZM130.953 29.8249C129.493 28.3447 128.761 26.521 128.761 24.32H127.761C127.761 26.7697 128.587 28.85 130.241 30.5271L130.953 29.8249ZM130.385 24.32C130.385 26.1241 130.972 27.6595 132.157 28.8907L132.878 28.1973C131.886 27.1671 131.385 25.8866 131.385 24.32H130.385ZM132.16 28.8942C133.359 30.1158 134.798 30.74 136.453 30.74V29.74C135.08 29.74 133.894 29.2336 132.874 28.1938L132.16 28.8942ZM136.453 30.74C138.187 30.74 139.644 30.1209 140.789 28.8834L140.054 28.2046C139.108 29.2284 137.92 29.74 136.453 29.74V30.74ZM140.785 28.8871C141.947 27.6554 142.521 26.1212 142.521 24.32H141.521C141.521 25.8895 141.029 27.1712 140.058 28.2009L140.785 28.8871ZM142.521 24.32C142.521 22.5412 141.958 21.0195 140.821 19.7886L140.086 20.4674C141.039 21.4979 141.521 22.7708 141.521 24.32H142.521ZM140.824 19.7924C139.697 18.5483 138.225 17.932 136.453 17.932V18.932C137.967 18.932 139.161 19.4463 140.083 20.4636L140.824 19.7924ZM136.453 17.932C134.704 17.932 133.236 18.5366 132.089 19.7531L132.817 20.4389C133.762 19.4368 134.96 18.932 136.453 18.932V17.932ZM132.089 19.7531C130.946 20.9666 130.385 22.5024 130.385 24.32H131.385C131.385 22.7243 131.87 21.4441 132.817 20.4389L132.089 19.7531Z"
        fill="black" mask="url(#path-3-outside-2_1225_495)" />
    <path
        d="M205.067 44.936H203.675L203.347 47H202.595L203.507 41.216H205.547C206.555 41.216 207.243 41.872 207.243 42.848C207.243 44.096 206.371 44.936 205.067 44.936ZM205.371 41.896H204.155L203.779 44.256H205.027C205.923 44.256 206.467 43.752 206.467 42.904C206.467 42.288 206.043 41.896 205.371 41.896ZM207.303 45.32C207.303 44.024 208.311 42.984 209.567 42.984C210.631 42.984 211.351 43.704 211.351 44.76C211.351 46.056 210.351 47.096 209.095 47.096C208.031 47.096 207.303 46.376 207.303 45.32ZM208.039 45.272C208.039 46 208.463 46.456 209.151 46.456C209.959 46.456 210.623 45.72 210.623 44.808C210.623 44.088 210.199 43.624 209.511 43.624C208.703 43.624 208.039 44.36 208.039 45.272ZM212.47 47L211.83 43.088H212.55L212.862 45.168C212.902 45.416 212.934 45.736 212.966 46.08C213.078 45.776 213.182 45.52 213.35 45.168L214.334 43.088H215.07L215.382 45.168C215.406 45.36 215.454 45.816 215.478 46.072C215.606 45.752 215.766 45.384 215.862 45.168L216.846 43.088H217.622L215.702 47H215.03L214.686 44.864C214.638 44.568 214.59 44.136 214.582 43.928C214.478 44.184 214.318 44.56 214.182 44.872L213.19 47H212.47ZM219.242 47.096C218.202 47.096 217.522 46.408 217.522 45.352C217.522 44.016 218.45 42.984 219.658 42.984C220.77 42.984 221.418 43.784 221.242 44.904L221.202 45.176L218.226 45.184C218.226 45.224 218.226 45.264 218.226 45.312C218.226 46.04 218.618 46.488 219.266 46.488C219.778 46.488 220.21 46.232 220.386 45.792H221.106C220.842 46.592 220.098 47.096 219.242 47.096ZM219.626 43.592C219.01 43.592 218.506 44.04 218.314 44.696H220.554C220.658 44.032 220.274 43.592 219.626 43.592ZM224.54 43.056L224.436 43.72H224.108C223.428 43.72 222.908 44.152 222.796 44.904L222.46 47H221.74L222.364 43.088H223.02L222.972 43.704C223.204 43.288 223.628 43.008 224.14 43.008C224.276 43.008 224.412 43.024 224.54 43.056ZM226.218 47.096C225.178 47.096 224.498 46.408 224.498 45.352C224.498 44.016 225.426 42.984 226.634 42.984C227.746 42.984 228.394 43.784 228.218 44.904L228.178 45.176L225.202 45.184C225.202 45.224 225.202 45.264 225.202 45.312C225.202 46.04 225.594 46.488 226.242 46.488C226.754 46.488 227.186 46.232 227.362 45.792H228.082C227.818 46.592 227.074 47.096 226.218 47.096ZM226.602 43.592C225.986 43.592 225.482 44.04 225.29 44.696H227.53C227.634 44.032 227.25 43.592 226.602 43.592ZM230.316 47.096C229.404 47.096 228.748 46.384 228.748 45.36C228.748 43.984 229.636 42.984 230.82 42.984C231.452 42.984 231.956 43.296 232.14 43.8L232.556 41.112H233.276L232.348 47H231.692L231.74 46.304C231.404 46.824 230.932 47.096 230.316 47.096ZM230.508 46.456C231.316 46.456 231.956 45.704 231.956 44.736C231.956 44.04 231.572 43.624 230.908 43.624C230.1 43.624 229.476 44.36 229.476 45.32C229.476 46.008 229.876 46.456 230.508 46.456ZM236.232 47H235.568L236.496 41.112H237.216L236.8 43.776C237.136 43.256 237.608 42.984 238.216 42.984C239.136 42.984 239.784 43.696 239.784 44.72C239.784 46.096 238.896 47.096 237.72 47.096C237.088 47.096 236.576 46.784 236.392 46.28L236.232 47ZM236.584 45.344C236.584 46.04 236.96 46.456 237.624 46.456C238.44 46.456 239.064 45.72 239.064 44.76C239.064 44.072 238.664 43.624 238.032 43.624C237.216 43.624 236.584 44.376 236.584 45.344ZM239.49 48.744L239.586 48.144H240.066C240.378 48.144 240.682 48.072 240.93 47.592L241.162 47.152L240.274 43.088H241.002L241.626 46.248L243.258 43.088H244.042L241.474 47.88C241.162 48.464 240.762 48.816 240.106 48.816C239.858 48.816 239.666 48.792 239.49 48.744ZM246.53 47H245.714L248.698 41.216H249.546L250.698 47H249.938L249.658 45.544H247.274L246.53 47ZM248.866 42.408L247.602 44.896H249.538L249.05 42.408C249.034 42.304 249.01 42.168 249.01 42.088C248.978 42.168 248.93 42.288 248.866 42.408ZM252.08 47.096C251.8 47.096 251.616 46.896 251.616 46.632C251.616 46.288 251.92 45.984 252.256 45.984C252.544 45.984 252.728 46.176 252.728 46.456C252.728 46.792 252.424 47.096 252.08 47.096ZM255.532 41.216L254.62 47H253.868L254.78 41.216H255.532ZM256.354 47.096C256.074 47.096 255.89 46.896 255.89 46.632C255.89 46.288 256.194 45.984 256.53 45.984C256.818 45.984 257.002 46.176 257.002 46.456C257.002 46.792 256.698 47.096 256.354 47.096Z"
        fill="#0357F8" />
    <path
        d="M83.4228 47V40.334H81.4538V39.498H86.3048V40.334H84.3358V47H83.4228ZM87.2151 47V39.08H88.0841V42.391H88.1061C88.5461 41.8337 89.0997 41.555 89.7671 41.555C90.3244 41.555 90.8084 41.7457 91.2191 42.127C91.6371 42.5083 91.8461 43.1097 91.8461 43.931V47H90.9771V43.975C90.9771 43.4543 90.8561 43.051 90.6141 42.765C90.3794 42.479 90.0531 42.336 89.6351 42.336C89.1511 42.336 88.7697 42.4937 88.4911 42.809C88.2197 43.1243 88.0841 43.5827 88.0841 44.184V47H87.2151ZM95.4964 41.555C95.9511 41.555 96.3544 41.643 96.7064 41.819C97.0584 41.995 97.3298 42.2223 97.5204 42.501C97.7184 42.7797 97.8651 43.073 97.9604 43.381C98.0558 43.6817 98.1034 43.986 98.1034 44.294C98.1034 44.4333 98.0961 44.5397 98.0814 44.613H93.7804C93.7804 45.0897 93.9674 45.5113 94.3414 45.878C94.7154 46.2373 95.1518 46.417 95.6504 46.417C96.1931 46.417 96.6441 46.2043 97.0034 45.779H98.0044C97.7991 46.1677 97.4984 46.5013 97.1024 46.78C96.7138 47.0513 96.2371 47.187 95.6724 47.187C94.8438 47.187 94.1691 46.912 93.6484 46.362C93.1351 45.812 92.8784 45.1227 92.8784 44.294C92.8784 43.5387 93.1204 42.8933 93.6044 42.358C94.0884 41.8227 94.7191 41.555 95.4964 41.555ZM95.4964 42.314C95.0198 42.314 94.6274 42.4717 94.3194 42.787C94.0114 43.095 93.8354 43.4617 93.7914 43.887H97.1904C97.1464 43.4543 96.9668 43.084 96.6514 42.776C96.3434 42.468 95.9584 42.314 95.4964 42.314ZM107.771 39.498L104.966 47H104.108L101.303 39.498H102.293L104.064 44.514C104.269 45.1227 104.431 45.603 104.548 45.955H104.57C104.636 45.735 104.801 45.251 105.065 44.503L106.858 39.498H107.771ZM107.778 44.36C107.778 43.5533 108.046 42.886 108.581 42.358C109.124 41.8227 109.795 41.555 110.594 41.555C111.408 41.555 112.079 41.8227 112.607 42.358C113.142 42.8933 113.41 43.5607 113.41 44.36C113.41 45.1447 113.142 45.812 112.607 46.362C112.072 46.912 111.401 47.187 110.594 47.187C109.795 47.187 109.124 46.9157 108.581 46.373C108.046 45.8303 107.778 45.1593 107.778 44.36ZM108.68 44.36C108.68 44.9393 108.867 45.4233 109.241 45.812C109.622 46.2007 110.073 46.395 110.594 46.395C111.144 46.395 111.599 46.2007 111.958 45.812C112.325 45.4233 112.508 44.9393 112.508 44.36C112.508 43.788 112.328 43.3077 111.969 42.919C111.617 42.5303 111.159 42.336 110.594 42.336C110.037 42.336 109.578 42.5267 109.219 42.908C108.86 43.2893 108.68 43.7733 108.68 44.36ZM114.565 47V41.731H115.434V47H114.565ZM114.466 40.466V39.443H115.544V40.466H114.466ZM119.358 41.555C120.033 41.555 120.568 41.7163 120.964 42.039C121.368 42.3543 121.624 42.7027 121.734 43.084H120.766C120.524 42.5707 120.055 42.314 119.358 42.314C118.83 42.314 118.387 42.4937 118.027 42.853C117.668 43.205 117.488 43.7073 117.488 44.36C117.488 44.954 117.668 45.4453 118.027 45.834C118.394 46.2227 118.856 46.417 119.413 46.417C120.088 46.417 120.565 46.1273 120.843 45.548H121.811C121.65 46.01 121.371 46.3987 120.975 46.714C120.579 47.0293 120.055 47.187 119.402 47.187C118.581 47.187 117.906 46.923 117.378 46.395C116.85 45.8597 116.586 45.1777 116.586 44.349C116.586 43.557 116.839 42.8933 117.345 42.358C117.859 41.8227 118.53 41.555 119.358 41.555ZM125.177 41.555C125.632 41.555 126.035 41.643 126.387 41.819C126.739 41.995 127.01 42.2223 127.201 42.501C127.399 42.7797 127.546 43.073 127.641 43.381C127.736 43.6817 127.784 43.986 127.784 44.294C127.784 44.4333 127.777 44.5397 127.762 44.613H123.461C123.461 45.0897 123.648 45.5113 124.022 45.878C124.396 46.2373 124.832 46.417 125.331 46.417C125.874 46.417 126.325 46.2043 126.684 45.779H127.685C127.48 46.1677 127.179 46.5013 126.783 46.78C126.394 47.0513 125.918 47.187 125.353 47.187C124.524 47.187 123.85 46.912 123.329 46.362C122.816 45.812 122.559 45.1227 122.559 44.294C122.559 43.5387 122.801 42.8933 123.285 42.358C123.769 41.8227 124.4 41.555 125.177 41.555ZM125.177 42.314C124.7 42.314 124.308 42.4717 124 42.787C123.692 43.095 123.516 43.4617 123.472 43.887H126.871C126.827 43.4543 126.647 43.084 126.332 42.776C126.024 42.468 125.639 42.314 125.177 42.314ZM131.325 44.36C131.325 43.5533 131.592 42.886 132.128 42.358C132.67 41.8227 133.341 41.555 134.141 41.555C134.955 41.555 135.626 41.8227 136.154 42.358C136.689 42.8933 136.957 43.5607 136.957 44.36C136.957 45.1447 136.689 45.812 136.154 46.362C135.618 46.912 134.947 47.187 134.141 47.187C133.341 47.187 132.67 46.9157 132.128 46.373C131.592 45.8303 131.325 45.1593 131.325 44.36ZM132.227 44.36C132.227 44.9393 132.414 45.4233 132.788 45.812C133.169 46.2007 133.62 46.395 134.141 46.395C134.691 46.395 135.145 46.2007 135.505 45.812C135.871 45.4233 136.055 44.9393 136.055 44.36C136.055 43.788 135.875 43.3077 135.516 42.919C135.164 42.5303 134.705 42.336 134.141 42.336C133.583 42.336 133.125 42.5267 132.766 42.908C132.406 43.2893 132.227 43.7733 132.227 44.36ZM137.661 42.457V41.731H138.42V40.785C138.42 40.2203 138.559 39.7877 138.838 39.487C139.124 39.179 139.538 39.025 140.081 39.025C140.301 39.025 140.517 39.0543 140.73 39.113V39.839C140.554 39.7803 140.356 39.751 140.136 39.751C139.857 39.751 139.648 39.8353 139.509 40.004C139.369 40.1653 139.3 40.3927 139.3 40.686V41.731H140.51V42.457H139.3V47H138.42V42.457H137.661ZM147.174 43.777L149.539 47H148.384L146.118 43.865H145.117V47H144.204V39.498H146.371C147.229 39.498 147.867 39.718 148.285 40.158C148.703 40.5907 148.912 41.104 148.912 41.698C148.912 42.2187 148.743 42.6733 148.406 43.062C148.076 43.4433 147.665 43.6817 147.174 43.777ZM147.966 41.698C147.966 41.258 147.837 40.9207 147.581 40.686C147.324 40.4513 146.954 40.334 146.47 40.334H145.117V43.029H146.481C146.957 43.029 147.324 42.9043 147.581 42.655C147.837 42.3983 147.966 42.0793 147.966 41.698ZM152.462 41.555C152.917 41.555 153.32 41.643 153.672 41.819C154.024 41.995 154.296 42.2223 154.486 42.501C154.684 42.7797 154.831 43.073 154.926 43.381C155.022 43.6817 155.069 43.986 155.069 44.294C155.069 44.4333 155.062 44.5397 155.047 44.613H150.746C150.746 45.0897 150.933 45.5113 151.307 45.878C151.681 46.2373 152.118 46.417 152.616 46.417C153.159 46.417 153.61 46.2043 153.969 45.779H154.97C154.765 46.1677 154.464 46.5013 154.068 46.78C153.68 47.0513 153.203 47.187 152.638 47.187C151.81 47.187 151.135 46.912 150.614 46.362C150.101 45.812 149.844 45.1227 149.844 44.294C149.844 43.5387 150.086 42.8933 150.57 42.358C151.054 41.8227 151.685 41.555 152.462 41.555ZM152.462 42.314C151.986 42.314 151.593 42.4717 151.285 42.787C150.977 43.095 150.801 43.4617 150.757 43.887H154.156C154.112 43.4543 153.933 43.084 153.617 42.776C153.309 42.468 152.924 42.314 152.462 42.314ZM161.382 41.731V47H160.513V46.296H160.491C160 46.89 159.358 47.187 158.566 47.187C157.825 47.187 157.187 46.9267 156.652 46.406C156.124 45.878 155.86 45.196 155.86 44.36C155.86 43.546 156.12 42.875 156.641 42.347C157.169 41.819 157.829 41.555 158.621 41.555C159.347 41.555 159.974 41.8667 160.502 42.49H160.513V41.731H161.382ZM157.268 42.93C156.931 43.3333 156.762 43.81 156.762 44.36C156.762 44.91 156.931 45.3903 157.268 45.801C157.605 46.2117 158.078 46.417 158.687 46.417C159.2 46.417 159.644 46.2263 160.018 45.845C160.399 45.4563 160.59 44.9723 160.59 44.393C160.59 43.777 160.407 43.2783 160.04 42.897C159.681 42.5083 159.237 42.314 158.709 42.314C158.086 42.314 157.605 42.5193 157.268 42.93ZM162.905 47V39.08H163.774V47H162.905ZM172.208 39.498V40.334H169.007V42.699H172.087V43.535H169.007V46.164H172.329V47H168.094V39.498H172.208ZM177.152 42.996H176.272C176.228 42.7907 176.125 42.622 175.964 42.49C175.81 42.358 175.63 42.292 175.425 42.292C175.168 42.292 174.963 42.3617 174.809 42.501C174.662 42.633 174.589 42.798 174.589 42.996C174.589 43.1793 174.662 43.3443 174.809 43.491C174.963 43.6303 175.26 43.7697 175.7 43.909C176.719 44.239 177.229 44.8 177.229 45.592C177.229 46.076 177.068 46.4647 176.745 46.758C176.422 47.044 175.99 47.187 175.447 47.187C174.89 47.187 174.453 47.044 174.138 46.758C173.823 46.4647 173.621 46.076 173.533 45.592H174.413C174.538 46.1567 174.893 46.439 175.48 46.439C175.759 46.439 175.975 46.3657 176.129 46.219C176.283 46.0723 176.36 45.8853 176.36 45.658C176.36 45.416 176.279 45.218 176.118 45.064C175.957 44.9027 175.645 44.745 175.183 44.591C174.684 44.4297 174.318 44.2207 174.083 43.964C173.848 43.7073 173.731 43.381 173.731 42.985C173.731 42.5817 173.874 42.2443 174.16 41.973C174.453 41.6943 174.86 41.555 175.381 41.555C176.342 41.555 176.932 42.0353 177.152 42.996ZM177.844 42.457V41.731H178.537V40.048H179.406V41.731H180.814V42.457H179.406V45.24C179.406 45.6507 179.469 45.9367 179.593 46.098C179.725 46.252 179.938 46.329 180.231 46.329C180.444 46.329 180.657 46.2997 180.869 46.241V46.956C180.649 47.0293 180.378 47.066 180.055 47.066C179.469 47.066 179.069 46.901 178.856 46.571C178.644 46.241 178.537 45.7863 178.537 45.207V42.457H177.844ZM186.991 41.731V47H186.122V46.296H186.1C185.609 46.89 184.967 47.187 184.175 47.187C183.435 47.187 182.797 46.9267 182.261 46.406C181.733 45.878 181.469 45.196 181.469 44.36C181.469 43.546 181.73 42.875 182.25 42.347C182.778 41.819 183.438 41.555 184.23 41.555C184.956 41.555 185.583 41.8667 186.111 42.49H186.122V41.731H186.991ZM182.877 42.93C182.54 43.3333 182.371 43.81 182.371 44.36C182.371 44.91 182.54 45.3903 182.877 45.801C183.215 46.2117 183.688 46.417 184.296 46.417C184.81 46.417 185.253 46.2263 185.627 45.845C186.009 45.4563 186.199 44.9723 186.199 44.393C186.199 43.777 186.016 43.2783 185.649 42.897C185.29 42.5083 184.846 42.314 184.318 42.314C183.695 42.314 183.215 42.5193 182.877 42.93ZM187.942 42.457V41.731H188.635V40.048H189.504V41.731H190.912V42.457H189.504V45.24C189.504 45.6507 189.566 45.9367 189.691 46.098C189.823 46.252 190.036 46.329 190.329 46.329C190.542 46.329 190.754 46.2997 190.967 46.241V46.956C190.747 47.0293 190.476 47.066 190.153 47.066C189.566 47.066 189.167 46.901 188.954 46.571C188.741 46.241 188.635 45.7863 188.635 45.207V42.457H187.942ZM194.185 41.555C194.64 41.555 195.043 41.643 195.395 41.819C195.747 41.995 196.018 42.2223 196.209 42.501C196.407 42.7797 196.554 43.073 196.649 43.381C196.744 43.6817 196.792 43.986 196.792 44.294C196.792 44.4333 196.785 44.5397 196.77 44.613H192.469C192.469 45.0897 192.656 45.5113 193.03 45.878C193.404 46.2373 193.84 46.417 194.339 46.417C194.882 46.417 195.333 46.2043 195.692 45.779H196.693C196.488 46.1677 196.187 46.5013 195.791 46.78C195.402 47.0513 194.926 47.187 194.361 47.187C193.532 47.187 192.858 46.912 192.337 46.362C191.824 45.812 191.567 45.1227 191.567 44.294C191.567 43.5387 191.809 42.8933 192.293 42.358C192.777 41.8227 193.408 41.555 194.185 41.555ZM194.185 42.314C193.708 42.314 193.316 42.4717 193.008 42.787C192.7 43.095 192.524 43.4617 192.48 43.887H195.879C195.835 43.4543 195.655 43.084 195.34 42.776C195.032 42.468 194.647 42.314 194.185 42.314ZM197.847 47V45.79H199.057V47H197.847Z"
        fill="black" />
    <path fill-rule="evenodd" clip-rule="evenodd"
        d="M3.67948 15.0127C1.62021 15.176 0 16.8988 0 19.0001V24.0001C0 26.2092 1.79086 28.0001 4 28.0001C4.01915 28.0001 4.03826 27.9999 4.05734 27.9996C3.26418 25.7905 2.83203 23.4092 2.83203 20.9271C2.83203 18.8731 3.12795 16.8882 3.67948 15.0127ZM65.9425 27.9996C65.9616 27.9999 65.9808 28.0001 66 28.0001C68.2091 28.0001 70 26.2092 70 24.0001V19.0001C70 16.8988 68.3797 15.1759 66.3204 15.0127C66.8719 16.8882 67.1678 18.8731 67.1678 20.9271C67.1678 23.4092 66.7357 25.7905 65.9425 27.9996ZM65.2909 15.0627C65.861 16.9168 66.1678 18.8861 66.1678 20.9271C66.1678 23.3634 65.7306 25.6975 64.9304 27.8554C63.2406 27.3876 62 25.8387 62 24.0001V19.0001C62 17.0329 63.42 15.3974 65.2909 15.0627ZM4.70895 15.0627C6.57991 15.3973 8 17.0328 8 19.0001V24.0001C8 25.8388 6.75936 27.3877 5.06951 27.8555C4.26925 25.6976 3.83203 23.3634 3.83203 20.9271C3.83203 18.8861 4.13888 16.9167 4.70895 15.0627Z"
        fill="#0357F8" />
    <rect x="5.83203" y="3" width="58.3358" height="35.854" rx="17.927" stroke="#0357F8"
        stroke-width="4" />
    <circle cx="47.1354" cy="19.5216" r="4.47081" fill="#0357F8" />
    <circle cx="22.8648" cy="19.5218" r="4.47081" fill="#0357F8" />
    <path
        d="M39.343 22.0765C39.343 22.6696 39.225 23.2567 38.9959 23.8037C38.7668 24.3507 38.4312 24.8466 38.0085 25.2626C37.5859 25.6787 37.0847 26.0065 36.5342 26.2269C35.9836 26.4474 35.3947 26.5561 34.8018 26.5468C34.2088 26.5374 33.6236 26.4102 33.0803 26.1725C32.537 25.9348 32.0464 25.5914 31.6371 25.1623C31.2277 24.7332 30.9079 24.2269 30.6961 23.673C30.4843 23.119 30.3849 22.5285 30.4036 21.9357L34.8722 22.0765H39.343Z"
        fill="#0357F8" />
</svg>