<svg width="48" height="48" viewBox="0 0 48 48" fill="none" xmlns="http://www.w3.org/2000/svg">
<rect width="48" height="48" rx="24" fill="#0357F8"/>
<circle cx="24" cy="24" r="24" fill="url(#paint0_linear_1536_1150)"/>
<circle cx="24" cy="24" r="23.5" stroke="white" stroke-opacity="0.24"/>
<path d="M18.75 24V17C18.75 15.6076 19.3031 14.2723 20.2877 13.2877C21.2723 12.3031 22.6076 11.75 24 11.75C25.3924 11.75 26.7277 12.3031 27.7123 13.2877C28.6969 14.2723 29.25 15.6076 29.25 17V24C29.25 25.3924 28.6969 26.7277 27.7123 27.7123C26.7277 28.6969 25.3924 29.25 24 29.25C22.6076 29.25 21.2723 28.6969 20.2877 27.7123C19.3031 26.7277 18.75 25.3924 18.75 24ZM32.75 24C32.75 23.7679 32.6578 23.5454 32.4937 23.3813C32.3296 23.2172 32.1071 23.125 31.875 23.125C31.6429 23.125 31.4204 23.2172 31.2563 23.3813C31.0922 23.5454 31 23.7679 31 24C31 25.8565 30.2625 27.637 28.9497 28.9497C27.637 30.2625 25.8565 31 24 31C22.1435 31 20.363 30.2625 19.0503 28.9497C17.7375 27.637 17 25.8565 17 24C17 23.7679 16.9078 23.5454 16.7437 23.3813C16.5796 23.2172 16.3571 23.125 16.125 23.125C15.8929 23.125 15.6704 23.2172 15.5063 23.3813C15.3422 23.5454 15.25 23.7679 15.25 24C15.2527 26.1684 16.0593 28.2588 17.5139 29.8669C18.9685 31.4751 20.9677 32.4867 23.125 32.7063V35.375C23.125 35.6071 23.2172 35.8296 23.3813 35.9937C23.5454 36.1578 23.7679 36.25 24 36.25C24.2321 36.25 24.4546 36.1578 24.6187 35.9937C24.7828 35.8296 24.875 35.6071 24.875 35.375V32.7063C27.0323 32.4867 29.0315 31.4751 30.4861 29.8669C31.9407 28.2588 32.7473 26.1684 32.75 24Z" fill="white"/>
<defs>
<linearGradient id="paint0_linear_1536_1150" x1="8.5" y1="10.5" x2="24" y2="48" gradientUnits="userSpaceOnUse">
<stop stop-color="#548EFD"/>
<stop offset="0.629981" stop-color="#0357F8"/>
</linearGradient>
</defs>
</svg>
