<svg width="40" height="40" viewBox="0 0 40 40" fill="none" xmlns="http://www.w3.org/2000/svg">
<rect width="40" height="40" rx="20" fill="#171B1A"/>
<rect x="1.5" y="1.5" width="37" height="37" rx="18.5" stroke="white" stroke-opacity="0.12" stroke-width="3"/>
<path d="M20 11.875C18.393 11.875 16.8221 12.3515 15.486 13.2443C14.1498 14.1371 13.1084 15.406 12.4935 16.8907C11.8785 18.3753 11.7176 20.009 12.0311 21.5851C12.3446 23.1612 13.1185 24.6089 14.2548 25.7452C15.3911 26.8815 16.8388 27.6554 18.4149 27.9689C19.991 28.2824 21.6247 28.1215 23.1093 27.5065C24.594 26.8916 25.8629 25.8502 26.7557 24.514C27.6485 23.1779 28.125 21.607 28.125 20C28.1227 17.8458 27.266 15.7805 25.7427 14.2573C24.2195 12.734 22.1542 11.8773 20 11.875ZM22.9422 22.0578C23.0003 22.1159 23.0463 22.1848 23.0777 22.2607C23.1092 22.3366 23.1254 22.4179 23.1254 22.5C23.1254 22.5821 23.1092 22.6634 23.0777 22.7393C23.0463 22.8152 23.0003 22.8841 22.9422 22.9422C22.8841 23.0003 22.8152 23.0463 22.7393 23.0777C22.6634 23.1092 22.5821 23.1253 22.5 23.1253C22.4179 23.1253 22.3366 23.1092 22.2607 23.0777C22.1848 23.0463 22.1159 23.0003 22.0578 22.9422L20 20.8836L17.9422 22.9422C17.8841 23.0003 17.8152 23.0463 17.7393 23.0777C17.6634 23.1092 17.5821 23.1253 17.5 23.1253C17.4179 23.1253 17.3366 23.1092 17.2607 23.0777C17.1848 23.0463 17.1159 23.0003 17.0578 22.9422C16.9997 22.8841 16.9537 22.8152 16.9223 22.7393C16.8908 22.6634 16.8747 22.5821 16.8747 22.5C16.8747 22.4179 16.8908 22.3366 16.9223 22.2607C16.9537 22.1848 16.9997 22.1159 17.0578 22.0578L19.1164 20L17.0578 17.9422C16.9405 17.8249 16.8747 17.6659 16.8747 17.5C16.8747 17.3341 16.9405 17.1751 17.0578 17.0578C17.1751 16.9405 17.3342 16.8747 17.5 16.8747C17.6659 16.8747 17.8249 16.9405 17.9422 17.0578L20 19.1164L22.0578 17.0578C22.1159 16.9997 22.1848 16.9537 22.2607 16.9223C22.3366 16.8908 22.4179 16.8747 22.5 16.8747C22.5821 16.8747 22.6634 16.8908 22.7393 16.9223C22.8152 16.9537 22.8841 16.9997 22.9422 17.0578C23.0003 17.1159 23.0463 17.1848 23.0777 17.2607C23.1092 17.3366 23.1254 17.4179 23.1254 17.5C23.1254 17.5821 23.1092 17.6634 23.0777 17.7393C23.0463 17.8152 23.0003 17.8841 22.9422 17.9422L20.8836 20L22.9422 22.0578Z" fill="url(#paint0_linear_2172_1756)"/>
<defs>
<linearGradient id="paint0_linear_2172_1756" x1="20" y1="11.875" x2="23.5751" y2="40.1501" gradientUnits="userSpaceOnUse">
<stop offset="0.169577" stop-color="white"/>
<stop offset="1" stop-color="white" stop-opacity="0"/>
</linearGradient>
</defs>
</svg>
