<svg width="46" height="46" viewBox="0 0 46 46" fill="none" xmlns="http://www.w3.org/2000/svg">
<rect width="46" height="46" rx="23" fill="#171B1A"/>
<rect x="1.5" y="1.5" width="43" height="43" rx="21.5" stroke="white" stroke-opacity="0.12" stroke-width="3"/>
<path d="M23 15.4375C21.3683 15.4375 19.7733 15.9214 18.4165 16.8279C17.0598 17.7344 16.0024 19.0229 15.378 20.5304C14.7536 22.0379 14.5902 23.6967 14.9085 25.297C15.2269 26.8973 16.0126 28.3673 17.1664 29.5211C18.3202 30.6749 19.7902 31.4606 21.3905 31.779C22.9909 32.0973 24.6497 31.9339 26.1571 31.3095C27.6646 30.6851 28.9531 29.6277 29.8596 28.271C30.7661 26.9142 31.25 25.3192 31.25 23.6875C31.2475 21.5002 30.3775 19.4033 28.8309 17.8566C27.2842 16.31 25.1873 15.44 23 15.4375ZM26.9239 20.7364L23.4864 24.1739C23.4225 24.2378 23.3467 24.2885 23.2632 24.323C23.1798 24.3576 23.0903 24.3754 23 24.3754C22.9097 24.3754 22.8202 24.3576 22.7368 24.323C22.6533 24.2885 22.5775 24.2378 22.5136 24.1739C22.4497 24.11 22.3991 24.0342 22.3645 23.9507C22.3299 23.8673 22.3121 23.7778 22.3121 23.6875C22.3121 23.5972 22.3299 23.5077 22.3645 23.4243C22.3991 23.3408 22.4497 23.265 22.5136 23.2011L25.9511 19.7636C26.015 19.6997 26.0908 19.649 26.1743 19.6145C26.2577 19.5799 26.3472 19.5621 26.4375 19.5621C26.5278 19.5621 26.6173 19.5799 26.7007 19.6145C26.7842 19.649 26.86 19.6997 26.9239 19.7636C26.9878 19.8275 27.0385 19.9033 27.073 19.9868C27.1076 20.0702 27.1254 20.1597 27.1254 20.25C27.1254 20.3403 27.1076 20.4298 27.073 20.5132C27.0385 20.5967 26.9878 20.6725 26.9239 20.7364ZM20.25 13.375C20.25 13.1927 20.3224 13.0178 20.4514 12.8889C20.5803 12.7599 20.7552 12.6875 20.9375 12.6875H25.0625C25.2448 12.6875 25.4197 12.7599 25.5486 12.8889C25.6776 13.0178 25.75 13.1927 25.75 13.375C25.75 13.5573 25.6776 13.7322 25.5486 13.8611C25.4197 13.9901 25.2448 14.0625 25.0625 14.0625H20.9375C20.7552 14.0625 20.5803 13.9901 20.4514 13.8611C20.3224 13.7322 20.25 13.5573 20.25 13.375Z" fill="url(#paint0_linear_2736_2137)"/>
<defs>
<linearGradient id="paint0_linear_2736_2137" x1="23" y1="12.6875" x2="28" y2="40.5" gradientUnits="userSpaceOnUse">
<stop offset="0.180317" stop-color="white"/>
<stop offset="1" stop-color="white" stop-opacity="0"/>
</linearGradient>
</defs>
</svg>
