<svg width="40" height="40" viewBox="0 0 40 40" fill="none" xmlns="http://www.w3.org/2000/svg">
<rect width="40" height="40" rx="20" fill="#171B1A"/>
<rect x="1.5" y="1.5" width="37" height="37" rx="18.5" stroke="white" stroke-opacity="0.12" stroke-width="3"/>
<path d="M26.2496 17.5002C26.2496 17.3148 26.3046 17.1335 26.4076 16.9793C26.5106 16.8252 26.657 16.705 26.8283 16.634C26.9996 16.5631 27.1881 16.5445 27.37 16.5807C27.5518 16.6169 27.7189 16.7061 27.85 16.8373C27.9811 16.9684 28.0704 17.1354 28.1066 17.3173C28.1427 17.4991 28.1242 17.6876 28.0532 17.8589C27.9822 18.0302 27.8621 18.1767 27.7079 18.2797C27.5537 18.3827 27.3725 18.4377 27.1871 18.4377C26.9384 18.4377 26.7 18.3389 26.5242 18.1631C26.3483 17.9873 26.2496 17.7488 26.2496 17.5002ZM25.3121 15.6252C25.4975 15.6252 25.6787 15.5702 25.8329 15.4672C25.9871 15.3642 26.1072 15.2177 26.1782 15.0464C26.2492 14.8751 26.2677 14.6866 26.2316 14.5048C26.1954 14.3229 26.1061 14.1559 25.975 14.0248C25.8439 13.8936 25.6768 13.8044 25.495 13.7682C25.3131 13.732 25.1246 13.7506 24.9533 13.8215C24.782 13.8925 24.6356 14.0127 24.5326 14.1668C24.4296 14.321 24.3746 14.5023 24.3746 14.6877C24.3746 14.9363 24.4733 15.1748 24.6492 15.3506C24.825 15.5264 25.0634 15.6252 25.3121 15.6252ZM27.5511 20.0002C27.386 19.9866 27.2222 20.0391 27.0958 20.1461C26.9694 20.2532 26.8906 20.4061 26.8769 20.5713C26.7651 21.8779 26.2823 23.1254 25.4856 24.1669C24.6888 25.2085 23.6111 26.0008 22.3793 26.4507C21.1475 26.9006 19.8128 26.9893 18.5323 26.7063C17.2518 26.4234 16.0787 25.7806 15.1512 24.8536C14.2236 23.9266 13.5801 22.754 13.2963 21.4736C13.0126 20.1933 13.1004 18.8586 13.5495 17.6265C13.9986 16.3944 14.7903 15.3162 15.8313 14.5188C16.8724 13.7213 18.1196 13.2378 19.4261 13.1252C19.5082 13.1184 19.5881 13.0955 19.6614 13.0579C19.7346 13.0202 19.7997 12.9685 19.853 12.9057C19.9062 12.8428 19.9466 12.7701 19.9717 12.6917C19.9969 12.6133 20.0063 12.5307 19.9996 12.4486C19.9928 12.3665 19.9699 12.2866 19.9323 12.2134C19.8946 12.1401 19.8429 12.075 19.78 12.0218C19.7172 11.9685 19.6445 11.9282 19.5661 11.903C19.4877 11.8779 19.4051 11.8684 19.323 11.8752C17.7793 12.008 16.3056 12.5789 15.0753 13.5208C13.845 14.4626 12.9093 15.7363 12.3783 17.1919C11.8473 18.6475 11.7431 20.2245 12.0779 21.7373C12.4127 23.2501 13.1726 24.6359 14.2682 25.7315C15.3639 26.8271 16.7496 27.587 18.2624 27.9218C19.7752 28.2566 21.3522 28.1524 22.8078 27.6214C24.2634 27.0904 25.5371 26.1547 26.479 24.9244C27.4209 23.6942 27.9918 22.2205 28.1246 20.6767C28.1316 20.5946 28.1224 20.5119 28.0973 20.4333C28.0723 20.3548 28.0319 20.282 27.9786 20.2191C27.9253 20.1562 27.8601 20.1045 27.7868 20.0669C27.7134 20.0294 27.6333 20.0067 27.5511 20.0002ZM19.9996 14.3752C21.1121 14.3752 22.1996 14.7051 23.1247 15.3232C24.0497 15.9412 24.7706 16.8197 25.1964 17.8476C25.6221 18.8754 25.7335 20.0064 25.5165 21.0976C25.2994 22.1887 24.7637 23.191 23.977 23.9776C23.1904 24.7643 22.1881 25.3 21.097 25.5171C20.0058 25.7341 18.8748 25.6227 17.847 25.197C16.8191 24.7712 15.9406 24.0503 15.3226 23.1253C14.7045 22.2002 14.3746 21.1127 14.3746 20.0002C14.3762 18.5088 14.9694 17.0791 16.0239 16.0245C17.0785 14.97 18.5082 14.3768 19.9996 14.3752ZM19.3746 20.0002C19.3746 20.1659 19.4404 20.3249 19.5576 20.4421C19.6748 20.5593 19.8338 20.6252 19.9996 20.6252H23.7496C23.9153 20.6252 24.0743 20.5593 24.1915 20.4421C24.3087 20.3249 24.3746 20.1659 24.3746 20.0002C24.3746 19.8344 24.3087 19.6754 24.1915 19.5582C24.0743 19.441 23.9153 19.3752 23.7496 19.3752H20.6246V16.2502C20.6246 16.0844 20.5587 15.9254 20.4415 15.8082C20.3243 15.691 20.1653 15.6252 19.9996 15.6252C19.8338 15.6252 19.6748 15.691 19.5576 15.8082C19.4404 15.9254 19.3746 16.0844 19.3746 16.2502V20.0002ZM22.4996 13.7502C22.685 13.7502 22.8662 13.6952 23.0204 13.5922C23.1746 13.4892 23.2947 13.3427 23.3657 13.1714C23.4367 13.0001 23.4552 12.8116 23.4191 12.6298C23.3829 12.4479 23.2936 12.2809 23.1625 12.1498C23.0314 12.0186 22.8643 11.9294 22.6825 11.8932C22.5006 11.857 22.3121 11.8756 22.1408 11.9465C21.9695 12.0175 21.8231 12.1377 21.7201 12.2918C21.6171 12.446 21.5621 12.6273 21.5621 12.8127C21.5621 13.0613 21.6608 13.2998 21.8367 13.4756C22.0125 13.6514 22.2509 13.7502 22.4996 13.7502Z" fill="url(#paint0_linear_2172_1750)"/>
<defs>
<linearGradient id="paint0_linear_2172_1750" x1="20.0063" y1="11.873" x2="23.5794" y2="40.1324" gradientUnits="userSpaceOnUse">
<stop offset="0.169577" stop-color="white"/>
<stop offset="1" stop-color="white" stop-opacity="0"/>
</linearGradient>
</defs>
</svg>
