<svg width="40" height="40" viewBox="0 0 40 40" fill="none" xmlns="http://www.w3.org/2000/svg">
<rect width="40" height="40" rx="20" fill="#171B1A"/>
<rect x="1.5" y="1.5" width="37" height="37" rx="18.5" stroke="white" stroke-opacity="0.12" stroke-width="3"/>
<path d="M26.25 12.5H13.75C13.4185 12.5 13.1005 12.6317 12.8661 12.8661C12.6317 13.1005 12.5 13.4185 12.5 13.75V26.25C12.5 26.5815 12.6317 26.8995 12.8661 27.1339C13.1005 27.3683 13.4185 27.5 13.75 27.5H26.25C26.5815 27.5 26.8995 27.3683 27.1339 27.1339C27.3683 26.8995 27.5 26.5815 27.5 26.25V13.75C27.5 13.4185 27.3683 13.1005 27.1339 12.8661C26.8995 12.6317 26.5815 12.5 26.25 12.5ZM17.0578 18.9328C17.1159 18.8747 17.1848 18.8286 17.2607 18.7972C17.3365 18.7657 17.4179 18.7495 17.5 18.7495C17.5821 18.7495 17.6635 18.7657 17.7393 18.7972C17.8152 18.8286 17.8841 18.8747 17.9422 18.9328L19.375 20.3664V15.625C19.375 15.4592 19.4408 15.3003 19.5581 15.1831C19.6753 15.0658 19.8342 15 20 15C20.1658 15 20.3247 15.0658 20.4419 15.1831C20.5592 15.3003 20.625 15.4592 20.625 15.625V20.3664L22.0578 18.9328C22.1159 18.8747 22.1848 18.8287 22.2607 18.7973C22.3366 18.7658 22.4179 18.7497 22.5 18.7497C22.5821 18.7497 22.6634 18.7658 22.7393 18.7973C22.8152 18.8287 22.8841 18.8747 22.9422 18.9328C23.0003 18.9909 23.0463 19.0598 23.0777 19.1357C23.1092 19.2116 23.1253 19.2929 23.1253 19.375C23.1253 19.4571 23.1092 19.5384 23.0777 19.6143C23.0463 19.6902 23.0003 19.7591 22.9422 19.8172L20.4422 22.3172C20.3841 22.3753 20.3152 22.4214 20.2393 22.4529C20.1635 22.4843 20.0821 22.5005 20 22.5005C19.9179 22.5005 19.8365 22.4843 19.7607 22.4529C19.6848 22.4214 19.6159 22.3753 19.5578 22.3172L17.0578 19.8172C16.9997 19.7591 16.9536 19.6902 16.9222 19.6143C16.8907 19.5385 16.8745 19.4571 16.8745 19.375C16.8745 19.2929 16.8907 19.2115 16.9222 19.1357C16.9536 19.0598 16.9997 18.9909 17.0578 18.9328ZM26.25 26.25H13.75V23.125H15.9914L17.5 24.6344C17.6158 24.7507 17.7535 24.8429 17.9052 24.9057C18.0568 24.9684 18.2195 25.0005 18.3836 25H21.6164C21.7806 25.0005 21.9433 24.9684 22.095 24.9055C22.2467 24.8426 22.3843 24.7502 22.5 24.6336L24.0086 23.125H26.25V26.25Z" fill="url(#paint0_linear_1491_2196)"/>
<defs>
<linearGradient id="paint0_linear_1491_2196" x1="20" y1="12.5" x2="23.3001" y2="38.6001" gradientUnits="userSpaceOnUse">
<stop offset="0.169577" stop-color="white"/>
<stop offset="1" stop-color="white" stop-opacity="0"/>
</linearGradient>
</defs>
</svg>
