<svg width="40" height="40" viewBox="0 0 40 40" fill="none" xmlns="http://www.w3.org/2000/svg">
<rect width="40" height="40" rx="20" fill="#171B1A"/>
<rect x="1.5" y="1.5" width="37" height="37" rx="18.5" stroke="white" stroke-opacity="0.12" stroke-width="3"/>
<path fill-rule="evenodd" clip-rule="evenodd" d="M16.4583 12.0254H24.375C26.75 12.0254 28.3333 13.6087 28.3333 15.9837V20.7337C28.3333 21.9171 27.9333 22.9087 27.2417 23.6087C26.55 24.2921 25.5583 24.6921 24.375 24.6921V26.3754C24.375 27.0087 23.6667 27.3921 23.15 27.0421L19.625 24.6921H19.1667C18.9417 24.6921 18.75 24.5087 18.7333 24.2754C18.5167 21.9337 16.55 20.0004 14.1667 20.0004C13.7917 20.0004 13.4333 20.0421 13.0833 20.1254C12.8 20.2004 12.5 19.9921 12.5 19.7004V15.9837C12.5 13.6087 14.0833 12.0254 16.4583 12.0254ZM17.6417 19.0087H23.1917C23.5167 19.0087 23.7833 18.7421 23.7833 18.4171C23.7833 18.0837 23.5167 17.8171 23.1917 17.8171H17.6417C17.3167 17.8171 17.05 18.0837 17.05 18.4171C17.05 18.7421 17.3167 19.0087 17.6417 19.0087ZM10.8335 24.5833C10.8335 22.7417 12.3252 21.25 14.1668 21.25C16.0085 21.25 17.5002 22.7417 17.5002 24.5833C17.5002 25.2083 17.3252 25.8 17.0168 26.3C16.4418 27.2667 15.3835 27.9167 14.1668 27.9167C12.9502 27.9167 11.8918 27.2667 11.3168 26.3C11.0085 25.8 10.8335 25.2083 10.8335 24.5833ZM14.0335 25.95L15.8085 24.3083C16.0585 24.075 16.0752 23.675 15.8418 23.425C15.6085 23.175 15.2085 23.1583 14.9585 23.3917L13.6252 24.625L13.2252 24.225C12.9835 23.9833 12.5835 23.9833 12.3418 24.225C12.1002 24.4667 12.1002 24.8667 12.3418 25.1083L13.1668 25.9333C13.2918 26.0583 13.4502 26.1167 13.6085 26.1167C13.7585 26.1167 13.9168 26.0583 14.0335 25.95Z" fill="url(#paint0_linear_1491_2146)"/>
<defs>
<linearGradient id="paint0_linear_1491_2146" x1="19.5834" y1="12.0254" x2="22.7671" y2="39.7529" gradientUnits="userSpaceOnUse">
<stop offset="0.169577" stop-color="white"/>
<stop offset="1" stop-color="white" stop-opacity="0"/>
</linearGradient>
</defs>
</svg>
