<svg width="40" height="40" viewBox="0 0 40 40" fill="none" xmlns="http://www.w3.org/2000/svg">
<rect width="40" height="40" rx="20" fill="#171B1A"/>
<rect x="1.5" y="1.5" width="37" height="37" rx="18.5" stroke="white" stroke-opacity="0.12" stroke-width="3"/>
<path d="M20 11.875C18.393 11.875 16.8221 12.3515 15.486 13.2443C14.1498 14.1371 13.1084 15.406 12.4935 16.8907C11.8785 18.3753 11.7176 20.009 12.0311 21.5851C12.3446 23.1612 13.1185 24.6089 14.2548 25.7452C15.3911 26.8815 16.8388 27.6554 18.4149 27.9689C19.991 28.2824 21.6247 28.1215 23.1093 27.5065C24.594 26.8916 25.8629 25.8502 26.7557 24.514C27.6485 23.1779 28.125 21.607 28.125 20C28.1227 17.8458 27.266 15.7805 25.7427 14.2573C24.2195 12.734 22.1542 11.8773 20 11.875ZM23.5672 18.5672L19.1922 22.9422C19.1341 23.0003 19.0652 23.0464 18.9893 23.0779C18.9135 23.1093 18.8321 23.1255 18.75 23.1255C18.6679 23.1255 18.5865 23.1093 18.5107 23.0779C18.4348 23.0464 18.3659 23.0003 18.3078 22.9422L16.4328 21.0672C16.3155 20.9499 16.2497 20.7909 16.2497 20.625C16.2497 20.4591 16.3155 20.3001 16.4328 20.1828C16.5501 20.0655 16.7092 19.9997 16.875 19.9997C17.0409 19.9997 17.1999 20.0655 17.3172 20.1828L18.75 21.6164L22.6828 17.6828C22.7409 17.6247 22.8098 17.5787 22.8857 17.5473C22.9616 17.5158 23.0429 17.4997 23.125 17.4997C23.2071 17.4997 23.2884 17.5158 23.3643 17.5473C23.4402 17.5787 23.5091 17.6247 23.5672 17.6828C23.6253 17.7409 23.6713 17.8098 23.7027 17.8857C23.7342 17.9616 23.7504 18.0429 23.7504 18.125C23.7504 18.2071 23.7342 18.2884 23.7027 18.3643C23.6713 18.4402 23.6253 18.5091 23.5672 18.5672Z" fill="url(#paint0_linear_2172_1762)"/>
<defs>
<linearGradient id="paint0_linear_2172_1762" x1="20" y1="11.875" x2="23.5751" y2="40.1501" gradientUnits="userSpaceOnUse">
<stop offset="0.169577" stop-color="white"/>
<stop offset="1" stop-color="white" stop-opacity="0"/>
</linearGradient>
</defs>
</svg>
