<svg width="26" height="24" viewBox="0 0 26 24" fill="none" xmlns="http://www.w3.org/2000/svg">
<path d="M15.2002 11.1225C15.2002 10.7234 15.5237 10.3999 15.9228 10.3999H24.8776C25.2767 10.3999 25.6002 10.7234 25.6002 11.1225V16.3999C25.6002 19.2718 23.2721 21.5999 20.4002 21.5999C17.5283 21.5999 15.2002 19.2718 15.2002 16.3999V11.1225Z" fill="url(#paint0_linear_1385_1328)"/>
<path d="M7.2002 9.78045C7.2002 9.23885 7.63925 8.7998 8.18084 8.7998H19.0196C19.5611 8.7998 20.0002 9.23885 20.0002 9.78045V17.5998C20.0002 21.1344 17.1348 23.9998 13.6002 23.9998C10.0656 23.9998 7.2002 21.1344 7.2002 17.5998V9.78045Z" fill="url(#paint1_linear_1385_1328)"/>
<circle cx="21.6002" cy="6.4" r="2.4" fill="#34439E"/>
<circle cx="21.6002" cy="6.4" r="2.4" fill="url(#paint2_linear_1385_1328)"/>
<circle cx="14.4002" cy="4.8001" r="3.2" fill="url(#paint3_linear_1385_1328)"/>
<mask id="mask0_1385_1328" style="mask-type:alpha" maskUnits="userSpaceOnUse" x="7" y="0" width="13" height="24">
<path d="M13.6002 8C15.8094 8 17.6002 6.20918 17.6002 4C17.6002 1.79082 15.8094 0 13.6002 0C11.391 0 9.6002 1.79082 9.6002 4C9.6002 6.20918 11.391 8 13.6002 8Z" fill="url(#paint4_linear_1385_1328)"/>
<path d="M8.18086 8.8C7.63926 8.8 7.2002 9.23906 7.2002 9.78066V17.6C7.2002 21.1347 10.0655 24 13.6002 24C17.1349 24 20.0002 21.1347 20.0002 17.6V9.78066C20.0002 9.23906 19.5611 8.8 19.0195 8.8H8.18086Z" fill="url(#paint5_linear_1385_1328)"/>
</mask>
<g mask="url(#mask0_1385_1328)">
<path d="M5.60059 9.6002C5.60059 8.27471 6.6751 7.2002 8.00059 7.2002H13.6006C14.9261 7.2002 16.0006 8.27471 16.0006 9.6002V19.2002C16.0006 20.5257 14.9261 21.6002 13.6006 21.6002H5.60059V9.6002Z" fill="black" fill-opacity="0.3"/>
</g>
<rect y="5.6001" width="14.4" height="14.4" rx="1.6" fill="url(#paint6_linear_1385_1328)"/>
<path d="M10.4 8.7998H4V10.2676H6.39595V16.7998H8.00405V10.2676H10.4V8.7998Z" fill="white"/>
<defs>
<linearGradient id="paint0_linear_1385_1328" x1="15.2002" y1="10.9894" x2="25.7275" y2="17.8683" gradientUnits="userSpaceOnUse">
<stop stop-color="#364088"/>
<stop offset="1" stop-color="#6E7EE1"/>
</linearGradient>
<linearGradient id="paint1_linear_1385_1328" x1="7.2002" y1="15.5229" x2="20.0002" y2="15.5229" gradientUnits="userSpaceOnUse">
<stop stop-color="#515FC4"/>
<stop offset="1" stop-color="#7084EA"/>
</linearGradient>
<linearGradient id="paint2_linear_1385_1328" x1="19.2002" y1="4.25263" x2="23.8373" y2="7.51575" gradientUnits="userSpaceOnUse">
<stop stop-color="#364088"/>
<stop offset="1" stop-color="#6E7EE1"/>
</linearGradient>
<linearGradient id="paint3_linear_1385_1328" x1="12.1145" y1="2.51438" x2="16.2288" y2="7.31438" gradientUnits="userSpaceOnUse">
<stop stop-color="#4858AE"/>
<stop offset="1" stop-color="#4E60CE"/>
</linearGradient>
<linearGradient id="paint4_linear_1385_1328" x1="10.7431" y1="1.14286" x2="15.8859" y2="7.14286" gradientUnits="userSpaceOnUse">
<stop stop-color="#4858AE"/>
<stop offset="1" stop-color="#4E60CE"/>
</linearGradient>
<linearGradient id="paint5_linear_1385_1328" x1="10.7431" y1="1.14286" x2="15.8859" y2="7.14286" gradientUnits="userSpaceOnUse">
<stop stop-color="#4858AE"/>
<stop offset="1" stop-color="#4E60CE"/>
</linearGradient>
<linearGradient id="paint6_linear_1385_1328" x1="-4.17232e-08" y1="12.8001" x2="14.4" y2="12.8001" gradientUnits="userSpaceOnUse">
<stop stop-color="#2A3887"/>
<stop offset="1" stop-color="#4C56B9"/>
</linearGradient>
</defs>
</svg>
